<?xml version="1.0" encoding="UTF-8"?> <svg xmlns="http://www.w3.org/2000/svg" width="500" height="218" viewBox="0 0 500 218" fill="none"><path d="M77.4146 92.1957C84.1708 80.3845 93.2454 69.8172 102.627 62.1878C106.019 59.5435 107.55 59.999 107.555 62.7999L107.614 91.0449C107.618 95.5501 106.549 97.5625 103.925 97.5674L89.9113 97.5919V98.2187C91.1459 98.6742 92.3805 100.231 93.6247 104.418L105.101 140.713H106.175C110.482 140.704 111.57 139.768 112.941 135.572L120.285 112.601H120.431L129.574 140.366C127.411 139.597 124.952 139.132 122.322 139.137C104.755 139.171 100.328 158.744 104.663 169.757C108.075 178.282 116.1 183.551 124.417 182.439C125.34 182.287 125.034 182.601 124.417 182.904C107.176 192.091 91.9235 192.12 81.7405 186.244C59.5323 173.415 55.5999 130.273 77.4146 92.1957ZM126.978 68.0347V68.0297C126.969 63.2211 124.193 60.5866 119.406 60.5965L115.867 60.6061L115.896 75.8109H118.054C122.988 75.8059 126.983 72.3781 126.978 68.0347ZM216.565 103.811C219.671 117.022 218.757 129.274 213.77 141.276C208.127 154.865 197.273 168.307 180.596 182.376C164.454 195.994 143.096 206.345 118.832 212.32C103.589 216.071 87.481 218 72.0435 218C65.7247 218 59.5323 217.682 53.544 217.03C26.762 214.107 7.41161 204.886 1.783 192.365C-1.60963 184.824 -0.156127 176.451 6.10419 167.479C19.6168 148.103 31.326 134.617 41.6598 122.718C49.6894 113.472 56.7081 105.383 62.8083 96.5439C63.4451 95.5501 64.077 94.551 64.7041 93.557C65.6031 92.0487 66.5074 90.5406 67.421 89.0372C68.155 87.7591 68.9035 86.481 69.6764 85.198C70.1819 84.3117 70.7068 83.44 71.2367 82.5733C74.9454 75.4143 78.2067 67.398 81.0647 57.8249C85.3761 43.389 93.056 29.6436 102.704 19.1154C112.737 8.16123 124.32 1.4526 135.329 0.21359C146.591 -1.04978 162.952 2.69639 176.96 27.6898C181.383 35.5882 186.035 43.1881 190.536 50.5384C201.813 68.9651 212.462 86.3685 216.56 103.816L216.565 103.811ZM58.1227 150.811C59.3573 169.184 66.8279 183.335 79.179 190.671C84.5889 193.854 90.8104 195.47 97.6687 195.47H97.7513C112.314 195.445 129.579 187.953 143.942 175.437C156.249 166.001 167.03 151.374 174.321 134.22C181.359 117.649 184.713 99.9717 183.755 84.4441L183.76 84.4391C182.608 65.7382 175.162 51.4736 162.801 44.2753C157.581 41.1609 151.452 39.5841 144.588 39.5841H144.506C129.443 39.6136 110.812 47.7129 97.0222 60.2242C84.9678 69.871 74.4204 84.4929 67.2995 101.441C60.3536 117.968 57.0921 135.503 58.1227 150.811ZM35.963 159.091C36.2157 156.373 36.7455 153.729 37.5427 151.227H37.5476C39.8904 143.842 42.6223 136.61 45.8253 129.304C41.3196 137.295 36.7553 146.183 32.3906 156.217C31.3356 158.646 30.5873 161.177 30.1642 163.743C28.6285 173.106 31.433 181.768 38.2767 188.8C44.6733 195.372 54.414 200.43 66.4343 203.432C74.0751 205.342 82.1343 206.209 90.4508 206.022C83.1841 205.875 76.1751 204.715 69.6036 202.57C46.6906 195.088 34.1161 178.835 35.963 159.091ZM43.5846 127.634C37.2121 137.036 30.6601 147.417 23.8601 160.124C22.4651 162.735 21.4445 165.408 20.8369 168.067C19.2425 174.986 20.3312 181.406 24.0495 187.16C30.3442 196.885 43.881 204.171 62.1667 207.677C71.9269 209.548 82.2558 210.106 92.8567 209.333C120.757 207.153 148.141 196.327 168.007 179.624C192.033 159.424 202.488 139.19 201.919 114.016C201.613 100.256 198.556 85.6095 192.854 70.4781C191.688 67.3884 190.371 64.3033 188.903 61.2134C190.599 65.1065 192.047 69.0973 193.224 73.1862C197.545 88.244 199.071 103.757 197.768 119.28C196.796 130.846 193.938 141.066 189.029 150.507C183.435 161.265 175.167 171.142 163.754 180.716C153.999 188.898 142.751 195.519 130.327 200.406C118.613 205.009 106.146 207.854 94.2712 208.642L94.2178 208.647H94.174C92.2054 208.76 90.2124 208.818 88.2635 208.818C80.496 208.818 72.9232 207.913 65.7685 206.13C53.2476 203.001 43.0646 197.678 36.3081 190.744C28.8179 183.051 25.751 173.561 27.4375 163.293C27.8945 160.497 28.7111 157.745 29.8582 155.105V155.095C34.325 144.837 38.9864 135.772 43.5846 127.634ZM152.701 179.844C150.834 181.391 148.91 182.875 146.941 184.305C150.086 182.19 153.114 179.922 155.977 177.537C173.733 162.71 183.95 145.728 188.125 124.089C189.17 118.673 189.86 113.247 190.21 107.87C189.287 115.299 187.658 122.869 185.345 130.425C182.38 140.116 178.234 149.097 173.023 157.123C167.531 165.575 160.692 173.219 152.701 179.844ZM169.412 154.748C171.983 150.791 174.282 146.58 176.299 142.158C172.775 149.41 168.639 156.153 164.041 162.191C165.956 159.786 167.749 157.304 169.412 154.748ZM130.269 197.477C141.808 192.83 152.642 186.425 161.989 178.585C182.846 161.104 193.029 142.741 195.022 119.05C196.019 107.146 195.304 95.2464 192.918 83.5576C194.726 96.6615 194.293 110.769 191.591 124.774C187.25 147.265 176.649 164.904 158.227 180.28C149.92 187.219 140.297 193.129 130.269 197.477ZM43.5652 124.172C35.0201 135.082 25.5662 147.584 15.3296 164.052C13.5895 166.843 12.3064 169.654 11.5092 172.411C9.58439 179.051 10.4057 185.231 13.9541 190.783C20.5403 201.111 36.5561 208.818 57.8989 211.938C68.7188 213.51 80.0732 213.808 91.6367 212.804C123.027 210.057 153.06 198.344 174.029 180.681C201.492 157.544 212.224 135.44 208.827 109.011C207.222 96.5439 202.872 83.205 195.139 67.0259C189.044 54.2845 181.024 41.6555 173.99 30.8237C167.851 21.3778 161.353 14.9826 154.115 11.2755C149.357 8.83207 144.326 7.6177 139.14 7.6177C132.729 7.6177 126.084 9.4736 119.415 13.1854C108.45 19.2869 98.1742 30.0304 90.4946 43.4281C88.2101 47.4191 86.2511 51.4001 84.6325 55.3225C86.1734 52.2572 87.9912 49.0791 90.1298 45.7248C96.3175 36.0143 103.988 27.7778 112.304 21.9114C121.194 15.6435 130.551 12.3283 139.368 12.3283C144.083 12.3283 148.662 13.2588 152.988 15.105C160.259 18.2095 166.918 23.8409 173.339 32.3221C183.046 45.1421 190.035 57.3938 194.706 69.778C200.491 85.1247 203.582 99.9913 203.903 113.977C204.18 126.219 201.949 137.134 197.078 147.353C191.498 159.072 182.404 170.129 169.28 181.161C149.109 198.124 121.316 209.122 93.0366 211.331H92.9928C89.9064 211.551 86.7905 211.668 83.7332 211.668C76.1896 211.668 68.8064 210.988 61.7973 209.641C42.977 206.037 28.9832 198.437 22.3921 188.252C18.3675 182.033 17.1914 175.094 18.9072 167.621C19.5536 164.791 20.6375 161.951 22.1151 159.184H22.12C29.4644 145.463 36.7212 134.152 43.5652 124.172ZM171.584 34.3739L171.579 34.369C174.063 37.1553 176.367 40.0347 178.496 42.9875C176.421 39.8682 174.175 36.7146 171.764 33.5268C165.552 25.3247 159.156 19.9039 152.21 16.9412C148.112 15.1931 143.796 14.3214 139.354 14.3214C132.952 14.3214 126.283 16.1283 119.595 19.7177C109.252 25.2706 99.3798 34.8832 91.7924 46.7971C91.1068 47.8793 90.4604 48.9371 89.8383 49.9801C90.1686 49.5051 90.5091 49.0252 90.8589 48.5355C97.2264 39.6624 104.95 32.1605 113.189 26.8476C122.011 21.1623 131.222 18.1508 139.825 18.1508C143.733 18.1508 147.548 18.7629 151.17 19.9723C158.432 22.4012 165.11 27.1119 171.584 34.3739ZM161.421 34.1585C157.27 31.2889 152.963 29.3449 148.38 28.2774C145.915 27.7044 143.354 27.4253 140.739 27.4253C128.155 27.4253 114.171 33.9038 102.063 45.3281C106.515 41.8122 111.215 38.7664 116.008 36.3131C124.913 31.7492 133.929 29.3351 142.09 29.3351C143.747 29.3351 145.386 29.433 146.97 29.624C152.064 30.2508 156.895 31.7688 161.421 34.1585ZM146.45 33.9381C145.045 33.7668 143.597 33.6786 142.124 33.6786C135.3 33.6786 127.819 35.51 120.237 39.0651C117.583 40.3089 114.953 41.7486 112.372 43.3547C114.307 42.341 116.275 41.391 118.268 40.5244C127.348 36.5776 136.423 34.4817 144.491 34.467H144.593C147.228 34.467 149.77 34.6776 152.215 35.0938C150.353 34.5649 148.433 34.178 146.45 33.9381ZM169.139 35.8087V35.7989C163.117 29.149 156.954 24.83 150.3 22.6068C146.946 21.4903 143.437 20.9321 139.825 20.9321C133.38 20.9321 126.604 22.7097 119.794 26.2207C111.215 30.6475 102.836 37.7723 95.8509 46.5278C101.494 40.5586 107.813 35.4807 114.375 31.6659C123.187 26.5536 132.281 23.8458 140.666 23.8458C143.577 23.8458 146.44 24.1738 149.177 24.8105C156.356 26.4852 162.889 30.0843 169.139 35.8087ZM54.0738 129.495C52.0956 135.822 50.54 142.143 49.4221 148.421C49.0479 150.556 48.8388 152.75 48.8 155.115C48.6494 164.287 50.9872 172.489 55.7556 179.506C60.2466 186.107 66.8815 191.444 74.9454 194.936C76.4132 195.573 77.925 196.126 79.4607 196.616C78.4839 196.145 77.5312 195.646 76.5979 195.093C62.7645 186.876 54.3995 171.275 53.0481 151.163H53.0432C52.5815 144.268 52.9413 136.958 54.0738 129.495ZM49.4562 129.818C46.1266 137.33 43.3074 144.743 40.9063 152.314C40.192 154.571 39.7057 156.961 39.4774 159.429C38.6071 168.738 41.1395 177.053 47.0161 184.143C52.4504 190.7 60.6357 195.906 70.6874 199.186C74.2453 200.347 77.9346 201.204 81.721 201.747C78.7948 201.042 75.966 200.102 73.2392 198.927C64.4269 195.107 57.1506 189.241 52.1975 181.959C46.914 174.188 44.3233 165.129 44.4935 155.041C44.537 152.436 44.7656 150.022 45.1835 147.652L45.1739 147.657C46.2287 141.737 47.6576 135.777 49.4562 129.818ZM215.729 104.002C211.665 86.6965 201.045 69.3471 189.802 50.979C185.301 43.624 180.645 36.0143 176.212 28.106C166.179 10.1982 153.435 0.850226 139.164 0.850226C137.929 0.850226 136.68 0.918805 135.416 1.06075C124.616 2.27528 113.213 8.89081 103.322 19.6932C93.7607 30.1234 86.1441 43.7562 81.8716 58.0696C80.8948 61.3652 79.8594 64.4698 78.7754 67.4226C79.8109 64.8713 80.8121 62.2124 81.784 59.4211C83.67 53.9954 86.256 48.4131 89.4543 42.821C95.5011 32.2731 103.161 23.3022 111.614 16.8727C120.611 10.0269 130.138 6.40818 139.159 6.40818C144.55 6.40818 149.765 7.68139 154.664 10.1935C162.092 13.9982 168.741 20.5307 174.996 30.1578C182.054 41.0238 190.103 53.6919 196.223 66.5021C204.014 82.7987 208.399 96.2551 210.017 108.855C211.655 121.611 210.076 133.182 205.186 144.234C199.601 156.858 189.661 169.086 174.797 181.602C163.744 190.916 150.499 198.506 135.431 204.157C121.724 209.293 106.617 212.707 91.7388 214.009C87.2864 214.391 82.7953 214.587 78.372 214.587C71.3144 214.587 64.3686 214.097 57.7289 213.128C47.1327 211.58 37.8782 208.956 30.2227 205.332C22.2268 201.551 16.4137 196.88 12.9384 191.435C9.1955 185.573 8.32567 179.056 10.3524 172.068C11.1788 169.208 12.5106 166.294 14.3041 163.405C26.3487 144.033 37.2997 130.141 46.9578 117.884C45.4413 119.652 43.8859 121.44 42.2868 123.281C31.9724 135.165 20.2729 148.632 6.78952 167.969C0.713707 176.676 -0.715227 184.77 2.54137 192.017C8.04847 204.259 27.141 213.294 53.6217 216.183C74.1531 218.421 97.2362 216.761 118.618 211.497C142.756 205.552 163.997 195.259 180.042 181.729C196.617 167.749 207.388 154.415 212.978 140.953V140.944C217.887 129.118 218.791 117.032 215.729 104.002ZM109.538 128.932H109.684L115.809 109.976C117.199 105.471 119.96 103.6 123.046 103.591H125.822L134.337 128.868H134.488L141.837 104.33C143.062 100.133 142.285 98.1208 139.358 98.1257L134.736 98.1306C129.958 98.1404 128.266 97.3715 125.953 93.4983L116.057 77.0596H115.906L115.94 95.2317C115.945 97.2443 115.021 98.1845 113.019 98.1845L106.539 98.1991C102.379 98.2041 101.149 100.226 102.393 104.413V104.418L109.538 128.932ZM112.776 55.3225L119.406 55.3078C129.579 55.2882 135.29 59.4652 135.3 66.7663C135.309 72.6621 131.319 77.3338 125.311 78.4258L133.496 90.9862C136.753 95.9467 138.756 97.4939 141.988 97.4891L152.166 97.4647V98.0914C150.465 98.8652 149.245 100.878 148.166 104.301L137.9 135.528C136.675 139.259 134.673 140.659 131.134 140.669H130.211C132.213 141.595 133.905 143.309 134.833 144.391L131.46 154.645H131.149C127.591 146.737 120.645 142.564 115.726 145.209C111.104 147.691 109.733 154.993 112.367 163.685C115.308 172.685 123.022 178.718 130.269 176.999C142.435 174.188 157.498 155.056 164.561 142.628V142.633C186.215 104.717 182.283 61.2623 160.225 48.7119C147.728 41.5968 130.016 44.2655 112.776 54.8573C112.469 55.0091 112.469 55.3225 112.776 55.3225ZM242.572 30.0151H244.076L248.869 44.4552H256.623L261.417 30.0151H262.92V44.4552H268.56V25.5181H257.728L253.169 39.9572H252.323L247.765 25.5181H236.933V44.4552H242.572V30.0151ZM293.64 39.9573H277.944V37.1879H290.186V33.0456H277.944V30.0152H293.522V25.5181H272.446V44.4552H293.64V39.9573ZM302.281 30.0151H303.785L311.657 44.4552H322.089V25.5181H316.45V39.9572H314.946L307.075 25.5181H296.643V44.4552H302.281V30.0151ZM332.952 25.5181H325.55V34.7499H328.934L332.952 25.5181ZM335.952 34.631C337.017 35.4996 338.655 36.0911 340.863 36.4065C341.913 36.5646 343.181 36.6994 344.67 36.8089C346.064 36.9362 347.137 37.0541 347.889 37.1645C348.641 37.275 349.252 37.4444 349.722 37.6737C350.191 37.902 350.426 38.2136 350.426 38.6086C350.426 39.1449 349.945 39.5792 348.981 39.9104C348.018 40.2418 346.479 40.4074 344.364 40.4074C341.216 40.4074 338.302 39.9816 335.623 39.129L334.613 43.3668C335.866 43.7926 337.405 44.152 339.23 44.4431C341.055 44.735 342.876 44.8811 344.693 44.8811C347.011 44.8811 349.024 44.6209 350.732 44.1006C352.439 43.5793 353.755 42.838 354.679 41.8749C355.603 40.9128 356.066 39.7767 356.066 38.4664C356.066 35.6418 353.888 33.9132 349.533 33.2824C348.359 33.1083 346.816 32.9352 344.905 32.7611C343.62 32.6357 342.657 32.5243 342.015 32.4298C341.372 32.3353 340.859 32.193 340.475 32.0039C340.091 31.8149 339.9 31.5538 339.9 31.2225C339.9 30.6862 340.393 30.2725 341.38 29.9796C342.367 29.6885 343.761 29.5426 345.562 29.5426C348.131 29.5426 350.888 29.9057 353.833 30.631L354.844 26.4176C353.371 25.9758 351.855 25.6445 350.297 25.4236C348.738 25.2027 347.231 25.0914 345.774 25.0914C343.471 25.0914 341.458 25.3487 339.735 25.8616C338.012 26.3745 336.684 27.1082 335.752 28.0629C334.821 29.0175 334.355 30.1265 334.355 31.3881C334.355 32.6825 334.887 33.7634 335.952 34.631ZM389.125 39.9573H376.014V39.6026C380.541 38.7032 383.874 37.5904 386.012 36.2652C388.15 34.939 389.219 33.3451 389.219 31.4836C389.219 30.1425 388.71 28.9903 387.692 28.0273C386.673 27.0643 385.311 26.3342 383.604 25.8373C381.896 25.3403 380.024 25.0914 377.988 25.0914C376.108 25.0914 374.373 25.2655 372.783 25.6127C371.193 25.9599 369.685 26.4494 368.26 27.0802L369.271 31.2936C372.106 30.1574 375.003 29.5893 377.964 29.5893C379.437 29.5893 380.74 29.7784 381.877 30.1574C383.012 30.5364 383.58 31.113 383.58 31.886C383.58 32.4541 383.157 33.0381 382.311 33.6371C381.466 34.237 379.91 34.9352 377.647 35.7326C375.383 36.5291 372.184 37.464 368.049 38.5375V44.4552H389.125L389.125 39.9573ZM392.75 40.0995C391.63 38.6002 391.07 36.8959 391.07 34.9867C391.07 33.0775 391.63 31.3731 392.75 29.8738C393.87 28.3745 395.429 27.2028 397.426 26.3586C399.423 25.5144 401.69 25.0914 404.228 25.0914C406.766 25.0914 409.033 25.5144 411.03 26.3586C413.028 27.2028 414.586 28.3745 415.706 29.8738C416.826 31.3731 417.386 33.0775 417.386 34.9867C417.386 36.8959 416.826 38.6002 415.706 40.0995C414.586 41.5989 413.028 42.7706 411.03 43.6148C409.033 44.459 406.766 44.8811 404.228 44.8811C401.69 44.8811 399.423 44.459 397.426 43.6148C395.429 42.7706 393.87 41.5989 392.75 40.0995ZM396.639 34.9867C396.639 36.0443 396.96 36.9867 397.602 37.815C398.244 38.6442 399.141 39.2909 400.292 39.7561C401.444 40.2221 402.756 40.4551 404.228 40.4551C405.7 40.4551 407.013 40.2221 408.164 39.7561C409.315 39.2909 410.212 38.6442 410.854 37.815C411.496 36.9867 411.818 36.0443 411.818 34.9867C411.818 33.9291 411.496 32.9867 410.854 32.1575C410.212 31.3291 409.315 30.6825 408.164 30.2164C407.013 29.7512 405.7 29.5182 404.228 29.5182C402.756 29.5182 401.444 29.7512 400.292 30.2164C399.141 30.6825 398.244 31.3291 397.602 32.1575C396.96 32.9867 396.639 33.9291 396.639 34.9867ZM440.213 39.9573H427.102V39.6026C431.629 38.7032 434.962 37.5904 437.1 36.2652C439.238 34.939 440.307 33.3451 440.307 31.4836C440.307 30.1425 439.798 28.9903 438.78 28.0273C437.762 27.0643 436.399 26.3342 434.692 25.8373C432.984 25.3403 431.112 25.0914 429.076 25.0914C427.196 25.0914 425.461 25.2655 423.871 25.6127C422.281 25.9599 420.774 26.4494 419.348 27.0802L420.359 31.2936C423.194 30.1574 426.092 29.5893 429.052 29.5893C430.525 29.5893 431.829 29.7784 432.965 30.1574C434.1 30.5364 434.668 31.113 434.668 31.886C434.668 32.4541 434.245 33.0381 433.4 33.6371C432.554 34.237 430.999 34.9352 428.735 35.7326C426.472 36.5291 423.272 37.464 419.137 38.5375V44.4552H440.213L440.213 39.9573ZM456.322 30.0151V30.2519C454.396 31.1832 452.696 32.5094 451.224 34.2296C449.751 35.9498 448.619 37.7439 447.828 39.6147C447.037 41.4847 446.642 43.0982 446.642 44.4552H453.62C453.62 42.9559 453.871 41.3621 454.372 39.6737C454.873 37.9853 455.762 36.3718 457.039 34.8323C458.315 33.2936 460.042 32.1378 462.22 31.3647V25.5181H441.661L442.365 30.0151H456.322ZM247.56 94.9126H236.926V59.2032H256.776C262.802 59.2032 267.683 59.6347 271.42 60.4976C275.156 61.3605 277.896 62.6923 279.639 64.492C281.381 66.2937 282.253 68.6063 282.253 71.4337C282.253 75.0341 280.805 77.7575 277.91 79.6021C275.015 81.4478 270.423 82.6224 264.131 83.1287C265.726 84.5868 268.125 85.6135 271.331 86.2087C274.536 86.8039 278.044 87.1006 281.854 87.1006V95.0465C277.334 95.0465 273.11 94.571 269.182 93.6182C265.253 92.6665 261.864 91.3122 259.013 89.5565C256.163 87.8007 254.043 85.7623 252.656 83.4413H247.56L247.56 94.9126ZM247.56 76.6559H256.776C261.443 76.6559 265.083 76.3593 267.698 75.7631C270.312 75.1678 271.619 73.9933 271.619 72.2366C271.619 70.4518 270.296 69.2464 267.653 68.6212C265.01 67.996 261.384 67.6834 256.776 67.6834H247.56L247.56 76.6559ZM286.962 59.2032V75.0939C286.962 81.9981 288.852 87.1615 292.633 90.5831C296.414 94.0048 302.115 95.7156 309.736 95.7156C317.357 95.7156 323.065 94.0048 326.861 90.5831C330.656 87.1615 332.554 81.9981 332.554 75.0939V59.2032H321.921V75.0939C321.921 83.1886 317.859 87.2354 309.736 87.2354C301.642 87.2354 297.596 83.1886 297.596 75.0939V59.2032H286.962ZM340.44 67.8398C338.343 70.712 337.295 73.9334 337.295 77.5039C337.295 80.9265 338.262 84.0066 340.197 86.7441C342.131 89.4825 345.1 91.6622 349.103 93.2832C353.105 94.9061 358.089 95.7156 364.056 95.7156C368.457 95.7156 372.755 95.2617 376.95 94.3549C381.144 93.447 384.954 92.0713 388.381 90.2256V73.5759H357.942V81.1642H378.412V85.4047C374.395 86.6851 369.875 87.3243 364.854 87.3243C353.629 87.3243 348.017 83.9026 348.017 77.0575C348.017 73.5469 349.568 70.9722 352.669 69.3353C355.771 67.6994 360.408 66.8804 366.582 66.8804C371.988 66.8804 377.526 67.4906 383.197 68.7101L385.324 60.7652C378.737 59.1882 372.459 58.3993 366.493 58.3993C359.965 58.3993 354.515 59.2547 350.144 60.9655C345.772 62.6773 342.538 64.9684 340.44 67.8398ZM420.056 94.9126H394.491V59.2032H420.056C423.748 59.2032 426.872 59.5973 429.427 60.3853C431.982 61.1742 433.895 62.2683 435.165 63.6666C436.434 65.0657 437.07 66.7017 437.07 68.5763C437.07 72.5652 434.057 75.064 428.031 76.0758V76.2984C435.091 77.4899 438.621 80.4351 438.621 85.1372C438.621 88.44 437.01 90.8957 433.792 92.5027C430.572 94.1097 425.993 94.9126 420.056 94.9126ZM404.859 73.442H420.056C422.094 73.442 423.704 73.2044 424.886 72.728C426.067 72.2526 426.658 71.5225 426.658 70.5407C426.658 69.529 426.06 68.7485 424.864 68.1973C423.667 67.6469 422.065 67.3718 420.056 67.3718H404.859L404.859 73.442ZM404.859 86.7441H420.056C422.567 86.7441 424.524 86.4465 425.927 85.8512C427.329 85.256 428.031 84.394 428.031 83.2625C428.031 82.1619 427.359 81.3879 426.015 80.9414C424.671 80.4951 422.685 80.2714 420.056 80.2714H404.859V86.7441ZM458.913 72.6831L448.457 59.2032H436.804L455.236 81.9682V94.9126H465.869V81.9682L484.302 59.2032H472.649L462.192 72.6831H458.913ZM263.865 137.081L269.271 109.852H270.644L276.05 137.081H296.52L304.983 101.371H294.083L288.279 128.6H284.202L278.398 101.371H261.517L255.713 128.6H251.636L245.832 101.371H234.933L243.395 137.081H263.865ZM331.952 137.884C326.428 137.884 321.731 137.162 317.862 135.719C313.992 134.276 311.053 132.156 309.045 129.359C307.036 126.562 306.032 123.183 306.032 119.226C306.032 115.269 307.036 111.891 309.045 109.093C311.053 106.296 313.992 104.176 317.862 102.732C321.731 101.289 326.428 100.567 331.952 100.567C337.475 100.567 342.172 101.289 346.041 102.732C349.911 104.176 352.849 106.296 354.859 109.093C356.867 111.891 357.872 115.269 357.872 119.226C357.872 123.183 356.867 126.562 354.859 129.359C352.849 132.156 349.911 134.276 346.041 135.719C342.172 137.162 337.475 137.884 331.952 137.884ZM320.631 126.77C323.275 128.526 327.048 129.404 331.952 129.404C336.855 129.404 340.629 128.526 343.273 126.77C345.916 125.014 347.238 122.499 347.238 119.226C347.238 115.953 345.916 113.438 343.273 111.682C340.629 109.926 336.855 109.049 331.952 109.049C327.048 109.049 323.275 109.926 320.631 111.682C317.987 113.438 316.666 115.953 316.666 119.226C316.666 122.499 317.987 125.014 320.631 126.77ZM403.065 121.77C400.17 123.616 395.578 124.79 389.286 125.297C390.881 126.755 393.28 127.782 396.486 128.377C399.691 128.972 403.199 129.269 407.009 129.269V137.215C402.489 137.215 398.265 136.739 394.337 135.786C390.408 134.835 387.018 133.48 384.168 131.724C381.318 129.969 379.198 127.93 377.81 125.609H372.715V137.081H362.081V101.371H381.931C387.957 101.371 392.838 101.803 396.574 102.666C400.311 103.529 403.05 104.86 404.794 106.66C406.536 108.462 407.408 110.774 407.408 113.602C407.408 117.202 405.96 119.926 403.065 121.77ZM396.774 114.405C396.774 112.62 395.451 111.415 392.808 110.789C390.165 110.164 386.539 109.852 381.931 109.852H372.715V118.824H381.931C386.598 118.824 390.238 118.527 392.852 117.931C395.467 117.336 396.774 116.161 396.774 114.405ZM448.967 128.6H423.047V101.371H412.414V137.081H448.967V128.6ZM472.529 137.081H452.768V101.371L472.529 101.326C478.112 101.326 482.971 102.048 487.107 103.491C491.242 104.935 494.424 107.003 496.655 109.696C498.885 112.39 500 115.565 500 119.226C500 122.886 498.885 126.056 496.655 128.733C494.424 131.412 491.242 133.473 487.107 134.916C482.971 136.359 478.112 137.081 472.529 137.081ZM463.402 128.6H472.529C475.926 128.6 478.894 128.206 481.435 127.417C483.975 126.629 485.932 125.527 487.306 124.114C488.679 122.701 489.366 121.071 489.366 119.226C489.366 117.381 488.679 115.751 487.306 114.338C485.932 112.925 483.975 111.824 481.435 111.035C478.894 110.247 475.926 109.852 472.529 109.852H463.402V128.6ZM247.782 177.798C251.681 179.3 256.259 180.052 261.517 180.052C268.665 180.052 275.43 178.832 281.81 176.392L279.904 168.447C274.322 170.53 268.532 171.572 262.536 171.572C257.308 171.572 253.283 170.731 250.462 169.049C247.641 167.369 246.231 164.875 246.231 161.572C246.231 158.151 247.671 155.569 250.551 153.828C253.431 152.087 257.633 151.217 263.156 151.217C268.355 151.217 273.76 151.931 279.373 153.359L281.278 145.414C278.324 144.61 275.142 143.963 271.73 143.472C268.318 142.981 264.913 142.735 261.517 142.735C256.259 142.735 251.681 143.502 247.782 145.034C243.883 146.567 240.877 148.754 238.765 151.596C236.653 154.438 235.597 157.763 235.597 161.572C235.597 165.322 236.653 168.588 238.765 171.37C240.877 174.153 243.883 176.296 247.782 177.798ZM285.128 143.539V159.43C285.128 166.334 287.018 171.498 290.799 174.919C294.58 178.341 300.281 180.052 307.902 180.052C315.523 180.052 321.231 178.341 325.027 174.919C328.822 171.498 330.72 166.334 330.72 159.43V143.539H320.086V159.43C320.086 167.525 316.024 171.572 307.902 171.572C299.808 171.572 295.761 167.525 295.761 159.43V143.539H285.128ZM373.963 166.817C369.946 169.183 364.688 170.366 358.19 170.366C356.535 170.366 354.608 170.292 352.408 170.142C350.207 169.995 348.294 169.801 346.67 169.562V179.249H336.036V143.539L355.886 143.494H356.418C361.793 143.494 366.217 143.926 369.688 144.789C373.158 145.653 375.743 147.014 377.442 148.873C379.14 150.734 379.989 153.121 379.989 156.037C379.989 160.858 377.98 164.451 373.963 166.817ZM369.355 157.109C369.355 155.353 368.277 154.066 366.121 153.248C363.964 152.43 360.553 152.02 355.886 152.02H346.67V162.242C347.969 162.361 349.565 162.465 351.455 162.554C353.345 162.644 354.985 162.688 356.373 162.688C360.331 162.688 363.485 162.242 365.833 161.35C368.181 160.457 369.355 159.044 369.355 157.109ZM242.432 205.361H254.673V201.218H242.432V198.188H258.01V193.691H236.933V212.628H258.127V208.13H242.432V205.361ZM279.718 193.691L274.455 200.887H271.776L266.513 193.691H259.934L267.053 203.159L259.934 212.628H266.513L271.823 205.384H274.408L279.718 212.628H286.297L279.178 203.159L286.297 193.691H279.718ZM310.454 196.519C311.355 197.505 311.805 198.772 311.805 200.319C311.805 202.875 310.74 204.78 308.61 206.035C306.479 207.29 303.691 207.917 300.245 207.917C299.367 207.917 298.345 207.878 297.179 207.799C296.011 207.72 294.997 207.618 294.136 207.491V212.628H288.497V193.691L299.023 193.666H299.305C302.156 193.666 304.501 193.896 306.342 194.353C308.183 194.811 309.553 195.534 310.454 196.519ZM306.166 200.887C306.166 199.956 305.594 199.274 304.451 198.839C303.307 198.405 301.498 198.188 299.023 198.188H294.136V203.609C294.825 203.672 295.671 203.727 296.673 203.774C297.676 203.822 298.545 203.845 299.281 203.845C301.38 203.845 303.053 203.609 304.298 203.136C305.544 202.662 306.166 201.913 306.166 200.887ZM319.669 205.361H331.911V201.218H319.669V198.188H335.247V193.691H314.171V212.628H335.365V208.13H319.669V205.361ZM360.102 204.509C358.567 205.487 356.131 206.11 352.795 206.379C353.641 207.152 354.913 207.697 356.613 208.012C358.312 208.327 360.173 208.486 362.194 208.486V212.699C359.797 212.699 357.557 212.446 355.473 211.942C353.39 211.436 351.592 210.719 350.081 209.787C348.569 208.856 347.445 207.775 346.709 206.545H344.007V212.628H338.368V193.691H348.894C352.09 193.691 354.678 193.919 356.66 194.377C358.641 194.835 360.094 195.541 361.018 196.496C361.943 197.45 362.405 198.677 362.405 200.177C362.405 202.086 361.637 203.53 360.102 204.509ZM356.766 200.602C356.766 199.656 356.065 199.017 354.663 198.686C353.261 198.353 351.338 198.188 348.894 198.188H344.007V202.946H348.894C351.369 202.946 353.3 202.789 354.686 202.472C356.073 202.157 356.766 201.534 356.766 200.602ZM365.753 212.628H371.392V193.691H365.753V212.628ZM380.791 205.361H393.032V201.218H380.791V198.188H396.369V193.691H375.292V212.628H396.486V208.13H380.791V205.361ZM419.301 208.13H417.798L409.926 193.691H399.494V212.628H405.133V198.188H406.637L414.508 212.628H424.941V193.691H419.301V208.13ZM442.058 208.557C439.285 208.557 437.151 208.11 435.655 207.219C434.159 206.327 433.411 205.006 433.411 203.254C433.411 201.439 434.175 200.07 435.702 199.147C437.229 198.223 439.457 197.762 442.387 197.762C445.144 197.762 448.01 198.141 450.987 198.898L451.997 194.685C450.431 194.259 448.743 193.915 446.933 193.655C445.124 193.395 443.319 193.264 441.518 193.264C438.729 193.264 436.301 193.671 434.233 194.484C432.166 195.297 430.572 196.456 429.452 197.963C428.332 199.471 427.772 201.234 427.772 203.254C427.772 205.243 428.332 206.974 429.452 208.45C430.572 209.926 432.166 211.062 434.233 211.859C436.301 212.655 438.729 213.054 441.518 213.054C445.308 213.054 448.895 212.407 452.279 211.113L451.269 206.899C448.308 208.005 445.238 208.557 442.058 208.557ZM460.213 205.361H472.455V201.218H460.213V198.188H475.791V193.691H454.715V212.628H475.909V208.13H460.213V205.361ZM492.982 201.455C491.807 201.281 490.264 201.108 488.353 200.934C487.068 200.808 486.105 200.697 485.463 200.602C484.82 200.508 484.308 200.366 483.924 200.177C483.54 199.988 483.348 199.726 483.348 199.395C483.348 198.859 483.842 198.445 484.829 198.152C485.815 197.861 487.209 197.715 489.011 197.715C491.58 197.715 494.336 198.078 497.282 198.804L498.292 194.59C496.82 194.148 495.304 193.817 493.746 193.596C492.187 193.375 490.679 193.264 489.222 193.264C486.92 193.264 484.907 193.521 483.184 194.034C481.461 194.547 480.133 195.281 479.201 196.235C478.269 197.19 477.803 198.299 477.803 199.561C477.803 200.855 478.335 201.936 479.401 202.804C480.466 203.672 482.103 204.264 484.312 204.579C485.361 204.737 486.63 204.872 488.118 204.982C489.512 205.109 490.585 205.227 491.337 205.337C492.089 205.448 492.7 205.617 493.17 205.846C493.64 206.075 493.875 206.386 493.875 206.781C493.875 207.318 493.393 207.752 492.43 208.083C491.466 208.414 489.927 208.58 487.813 208.58C484.664 208.58 481.75 208.154 479.072 207.302L478.062 211.539C479.315 211.965 480.854 212.325 482.679 212.616C484.503 212.908 486.324 213.054 488.141 213.054C490.46 213.054 492.473 212.794 494.18 212.273C495.887 211.752 497.203 211.011 498.128 210.048C499.052 209.085 499.514 207.949 499.514 206.639C499.514 203.814 497.337 202.086 492.982 201.455Z" fill="white"></path></svg> 