<?xml version="1.0" encoding="UTF-8"?> <svg xmlns="http://www.w3.org/2000/svg" width="110" height="48" viewBox="0 0 110 48" fill="none"><path d="M17.0312 20.3C18.5176 17.6993 20.514 15.3726 22.5779 13.6927C23.3243 13.1105 23.6611 13.2108 23.6622 13.8275L23.675 20.0466C23.676 21.0385 23.4408 21.4816 22.8634 21.4827L19.7805 21.4881V21.6261C20.0521 21.7264 20.3237 22.0693 20.5974 22.9911L23.1222 30.9828H23.3585C24.3059 30.9806 24.5455 30.7747 24.847 29.8506L26.4628 24.7928H26.4948L28.5062 30.9062C28.0304 30.737 27.4893 30.6345 26.9108 30.6356C23.0462 30.6431 22.0721 34.9527 23.0259 37.3776C23.7766 39.2547 25.5421 40.4148 27.3717 40.1701C27.5749 40.1367 27.5075 40.2057 27.3717 40.2725C23.5787 42.2952 20.2232 42.3017 17.9829 41.0079C13.0971 38.183 12.232 28.684 17.0312 20.3ZM27.9352 14.9801V14.979C27.9331 13.9202 27.3225 13.3402 26.2692 13.3423L25.4908 13.3445L25.4971 16.6923H25.9719C27.0573 16.6912 27.9363 15.9365 27.9352 14.9801ZM47.6442 22.8574C48.3275 25.7664 48.1265 28.4641 47.0294 31.1068C45.7878 34.0988 43.4 37.0584 39.7311 40.1561C36.1799 43.1546 31.4811 45.4339 26.143 46.7493C22.7896 47.5752 19.2458 48 15.8496 48C14.4594 48 13.0971 47.9299 11.7797 47.7865C5.88763 47.1428 1.63055 45.1126 0.392259 42.3556C-0.354119 40.6952 -0.034348 38.8515 1.34292 36.8762C4.31571 32.6098 6.89171 29.6404 9.16515 27.0204C10.9317 24.9847 12.4758 23.2036 13.8178 21.2574C13.9579 21.0385 14.097 20.8186 14.2349 20.5997C14.4327 20.2676 14.6316 19.9355 14.8326 19.6045C14.9941 19.3231 15.1588 19.0417 15.3288 18.7592C15.44 18.5641 15.5555 18.3721 15.6721 18.1813C16.488 16.605 17.2055 14.8399 17.8342 12.7321C18.7827 9.55354 20.4723 6.52703 22.595 4.20891C24.8021 1.79697 27.3503 0.319838 29.7724 0.047029C32.25 -0.231144 35.8494 0.5937 38.9313 6.09684C39.9044 7.83594 40.9277 9.50931 41.9179 11.1277C44.3988 15.185 46.7417 19.0169 47.6432 22.8585L47.6442 22.8574ZM12.787 33.206C13.0586 37.2514 14.7021 40.3674 17.4194 41.9826C18.6096 42.6834 19.9783 43.0392 21.4871 43.0392H21.5053C24.709 43.0338 28.5073 41.3842 31.6672 38.6283C34.3748 36.5506 36.7466 33.33 38.3506 29.5531C39.899 25.9045 40.6369 22.0121 40.4262 18.5932L40.4273 18.5921C40.1738 14.4745 38.5356 11.3336 35.8163 9.74869C34.6678 9.06294 33.3193 8.71577 31.8095 8.71577H31.7913C28.4774 8.72225 24.3786 10.5056 21.3449 13.2604C18.6929 15.3844 16.3725 18.6039 14.8059 22.3356C13.2778 25.9746 12.5603 29.8356 12.787 33.206ZM7.91186 35.0292C7.96744 34.4309 8.08401 33.8486 8.2594 33.2977H8.26048C8.77589 31.6717 9.3769 30.0792 10.0816 28.4706C9.0903 30.2302 8.08617 32.1871 7.12592 34.3963C6.89382 34.9311 6.7292 35.4885 6.63612 36.0536C6.29827 38.1151 6.91525 40.0224 8.42088 41.5707C9.82813 43.0176 11.9711 44.1314 14.6156 44.7923C16.2965 45.2128 18.0695 45.4037 19.8992 45.3627C18.3005 45.3304 16.7585 45.0749 15.3128 44.6026C10.2719 42.9551 7.50555 39.3766 7.91186 35.0292ZM9.58861 28.1029C8.18667 30.173 6.74522 32.4588 5.24922 35.2567C4.94232 35.8315 4.71779 36.4201 4.58412 37.0056C4.23334 38.5291 4.47286 39.9426 5.29089 41.2095C6.67573 43.3508 9.65382 44.9551 13.6767 45.7271C15.8239 46.139 18.0963 46.2619 20.4285 46.0916C26.5665 45.6118 32.5911 43.2279 36.9615 39.5501C42.2473 35.1026 44.5474 30.6474 44.4223 25.1044C44.3549 22.0747 43.6823 18.8498 42.428 15.5181C42.1714 14.8378 41.8816 14.1585 41.5586 13.4782C41.9318 14.3354 42.2505 15.2141 42.5092 16.1144C43.4599 19.4299 43.7957 22.8456 43.5091 26.2635C43.2952 28.8102 42.6664 31.0604 41.5864 33.1392C40.3556 35.508 38.5366 37.6827 36.0259 39.7906C33.8797 41.5923 31.4052 43.05 28.672 44.126C26.0949 45.1395 23.3521 45.766 20.7397 45.9396L20.7279 45.9406H20.7183C20.2852 45.9654 19.8467 45.9784 19.418 45.9784C17.7091 45.9784 16.0431 45.7789 14.4691 45.3865C11.7145 44.6975 9.47421 43.5255 7.98779 41.9987C6.33994 40.3049 5.66521 38.2153 6.03624 35.9543C6.13679 35.3387 6.31645 34.7328 6.5688 34.1516V34.1494C7.5515 31.8906 8.57701 29.8949 9.58861 28.1029ZM33.5942 39.5987C33.1836 39.9394 32.7601 40.2661 32.327 40.5809C33.0189 40.1151 33.6851 39.6159 34.3149 39.0908C38.2212 35.826 40.469 32.0868 41.3875 27.3223C41.6174 26.1298 41.7693 24.9351 41.8463 23.7513C41.6431 25.3869 41.2848 27.0538 40.7758 28.7175C40.1236 30.8512 39.2114 32.8287 38.0651 34.5958C36.8567 36.4568 35.3522 38.1399 33.5942 39.5987ZM37.2706 34.0729C37.8362 33.2017 38.342 32.2744 38.7858 31.3008C38.0105 32.8977 37.1006 34.3823 36.0889 35.7117C36.5103 35.1824 36.9048 34.6357 37.2706 34.0729ZM28.6592 43.4813C31.1978 42.4581 33.5813 41.0478 35.6377 39.3216C40.2262 35.4724 42.4665 31.4291 42.9049 26.2128C43.1241 23.5917 42.9669 20.9717 42.4419 18.398C42.8397 21.2833 42.7445 24.3896 42.15 27.4732C41.195 32.4254 38.8628 36.3091 34.81 39.6946C32.9825 41.2225 30.8652 42.5238 28.6592 43.4813ZM9.58433 27.3406C7.70443 29.7428 5.62457 32.4955 3.37251 36.1215C2.98969 36.7361 2.70742 37.3549 2.53203 37.9619C2.10857 39.424 2.28926 40.7847 3.06989 42.0074C4.51886 44.2813 8.04234 45.9784 12.7378 46.6652C15.1181 47.0113 17.6161 47.0771 20.1601 46.856C27.0659 46.2512 33.6733 43.6721 38.2865 39.783C44.3282 34.6885 46.6893 29.8216 45.9418 24.0025C45.589 21.2574 44.6319 18.3204 42.9306 14.758C41.5896 11.9525 39.8252 9.17185 38.2779 6.78687C36.9273 4.70704 35.4976 3.29891 33.9053 2.48269C32.8585 1.94468 31.7517 1.67729 30.6107 1.67729C29.2003 1.67729 27.7385 2.08593 26.2713 2.90321C23.8589 4.24665 21.5983 6.61221 19.9088 9.56216C19.4062 10.4409 18.9752 11.3175 18.6192 12.1811C18.9581 11.5062 19.3581 10.8064 19.8286 10.0678C21.1899 7.92976 22.8773 6.11622 24.7069 4.82454C26.6627 3.44444 28.7212 2.71449 30.661 2.71449C31.6983 2.71449 32.7055 2.91936 33.6573 3.32587C35.257 4.00943 36.722 5.24937 38.1346 7.1168C40.2701 9.93954 41.8078 12.6372 42.8354 15.364C44.1079 18.743 44.788 22.0164 44.8586 25.0958C44.9195 27.7913 44.4287 30.1946 43.3572 32.4448C42.1297 35.0249 40.1289 37.4595 37.2417 39.8887C32.8039 43.6236 26.6894 46.0452 20.468 46.5315H20.4584C19.7794 46.58 19.0939 46.6059 18.4213 46.6059C16.7617 46.6059 15.1374 46.456 13.5954 46.1595C9.45494 45.366 6.37631 43.6926 4.92626 41.4499C4.04085 40.0806 3.78212 38.5528 4.15958 36.9075C4.3018 36.2843 4.54024 35.6589 4.86532 35.0498H4.8664C6.48216 32.0286 8.07865 29.538 9.58433 27.3406ZM37.7485 7.56857L37.7475 7.56748C38.2939 8.18098 38.8008 8.81497 39.2691 9.46513C38.8125 8.77833 38.3185 8.08395 37.7881 7.38204C36.4215 5.57607 35.0142 4.3825 33.4862 3.73018C32.5847 3.34526 31.6352 3.15333 30.6578 3.15333C29.2494 3.15333 27.7823 3.55118 26.3109 4.34151C24.0354 5.56418 21.8635 7.6807 20.1943 10.3039C20.0435 10.5422 19.9013 10.7751 19.7644 11.0048C19.8371 10.9002 19.912 10.7945 19.989 10.6867C21.3898 8.73302 23.089 7.08122 24.9015 5.9114C26.8424 4.6596 28.8688 3.99651 30.7615 3.99651C31.6212 3.99651 32.4607 4.13127 33.2574 4.39758C34.8549 4.93237 36.3242 5.9696 37.7485 7.56857ZM35.5126 7.52113C34.5993 6.88929 33.6519 6.46126 32.6435 6.22622C32.1014 6.10006 31.5379 6.03859 30.9625 6.03859C28.194 6.03859 25.1175 7.46506 22.4538 9.98051C23.4333 9.20637 24.4674 8.53572 25.5217 7.99554C27.4808 6.99064 29.4644 6.45911 31.2598 6.45911C31.6244 6.45911 31.9849 6.48067 32.3334 6.52272C33.4541 6.66072 34.517 6.99496 35.5126 7.52113ZM32.219 7.47262C31.91 7.43489 31.5913 7.41546 31.2673 7.41546C29.7659 7.41546 28.1202 7.81871 26.4521 8.6015C25.8682 8.87535 25.2897 9.19236 24.7219 9.54598C25.1474 9.32278 25.5805 9.11361 26.019 8.92281C28.0165 8.05378 30.013 7.59231 31.788 7.58907H31.8105C32.3901 7.58907 32.9494 7.63544 33.4872 7.72707C33.0777 7.61063 32.6553 7.52544 32.219 7.47262ZM37.2107 7.88448V7.88232C35.8857 6.41812 34.5299 5.46716 33.0659 4.97763C32.3281 4.73182 31.556 4.60891 30.7615 4.60891C29.3435 4.60891 27.8529 5.0003 26.3547 5.77336C24.4674 6.74807 22.6238 8.31685 21.0872 10.2447C22.3287 8.93034 23.7188 7.81226 25.1624 6.97231C27.1012 5.84666 29.1019 5.25046 30.9465 5.25046C31.587 5.25046 32.2169 5.32267 32.8189 5.46285C34.3983 5.8316 35.8355 6.62406 37.2107 7.88448ZM11.8962 28.5126C11.461 29.9057 11.1188 31.2976 10.8729 32.6799C10.7905 33.15 10.7445 33.633 10.736 34.1538C10.7029 36.1732 11.2172 37.9792 12.2662 39.5243C13.2543 40.9777 14.7139 42.1529 16.488 42.9217C16.8109 43.0618 17.1435 43.1837 17.4814 43.2915C17.2665 43.188 17.0569 43.078 16.8515 42.9562C13.8082 41.147 11.9679 37.7118 11.6706 33.2836H11.6695C11.5679 31.7655 11.6471 30.1558 11.8962 28.5126ZM10.8804 28.5838C10.1479 30.2377 9.52762 31.8701 8.99939 33.537C8.84223 34.0341 8.73525 34.5602 8.68502 35.1036C8.49356 37.1533 9.05069 38.9841 10.3435 40.5453C11.5391 41.989 13.3399 43.1352 15.5512 43.8576C16.334 44.1131 17.1456 44.3018 17.9786 44.4214C17.3349 44.2662 16.7125 44.0592 16.1126 43.8004C14.1739 42.9594 12.5731 41.6678 11.4834 40.0645C10.3211 38.3533 9.75112 36.3587 9.78857 34.1376C9.79815 33.564 9.84842 33.0324 9.94037 32.5106L9.93826 32.5117C10.1703 31.2081 10.4847 29.896 10.8804 28.5838ZM47.4603 22.8995C46.5663 19.0891 44.2298 15.2691 41.7564 11.2247C40.7662 9.60529 39.7418 7.92976 38.7666 6.18848C36.5594 2.24548 33.7557 0.187206 30.6161 0.187206C30.3445 0.187206 30.0696 0.202306 29.7916 0.23356C27.4155 0.50098 24.9068 1.95761 22.7308 4.33611C20.6274 6.63267 18.9517 9.63439 18.0117 12.786C17.7968 13.5116 17.5691 14.1952 17.3306 14.8453C17.5584 14.2836 17.7787 13.6981 17.9925 13.0835C18.4074 11.8889 18.9763 10.6598 19.6799 9.42847C21.0102 7.106 22.6955 5.13077 24.5551 3.71508C26.5344 2.20775 28.6303 1.41098 30.615 1.41098C31.8009 1.41098 32.9483 1.69132 34.0262 2.24444C35.6601 3.08217 37.123 4.52051 38.4992 6.64025C40.0519 9.03277 41.8227 11.8221 43.169 14.6427C44.8832 18.2309 45.8477 21.1938 46.2038 23.968C46.5642 26.7767 46.2166 29.3245 45.1409 31.758C43.9122 34.5376 41.7254 37.2299 38.4554 39.9857C36.0237 42.0365 33.1098 43.7077 29.7948 44.9519C26.7793 46.083 23.4558 46.8345 20.1825 47.1213C19.203 47.2054 18.215 47.2485 17.2418 47.2485C15.6892 47.2485 14.1611 47.1407 12.7004 46.9272C10.3692 46.5865 8.33321 46.0086 6.649 45.2107C4.88989 44.3783 3.611 43.3497 2.84644 42.1508C2.02301 40.8602 1.83165 39.4251 2.27752 37.8865C2.45935 37.2568 2.75233 36.6153 3.1469 35.9792C5.79672 31.7138 8.20593 28.6549 10.3307 25.9562C9.99708 26.3454 9.6549 26.739 9.30309 27.1444C7.03393 29.7612 4.46004 32.7262 1.49369 36.9841C0.157016 38.9011 -0.15735 40.6833 0.559101 42.279C1.77066 44.9746 5.97103 46.9638 11.7968 47.6C16.3137 48.0927 21.392 47.7272 26.096 46.5681C31.4063 45.2592 36.0793 42.9929 39.6092 40.0138C43.2556 36.9355 45.6253 33.9996 46.8551 31.0356V31.0334C47.9351 28.4296 48.134 25.7686 47.4603 22.8995ZM24.0985 28.3886H24.1305L25.4779 24.2149C25.7837 23.223 26.3911 22.8111 27.0702 22.8089H27.6807L29.5542 28.3746H29.5874L31.2042 22.9718C31.4737 22.0477 31.3026 21.6046 30.6588 21.6057L29.6419 21.6067C28.5907 21.6089 28.2186 21.4396 27.7096 20.5868L25.5324 16.9673H25.4993L25.5068 20.9685C25.5079 21.4116 25.3047 21.6186 24.8641 21.6186L23.4387 21.6218C22.5233 21.6229 22.2528 22.0682 22.5265 22.9901V22.9911L24.0985 28.3886ZM24.8106 12.1811L26.2692 12.1779C28.5073 12.1736 29.7638 13.0933 29.7659 14.7008C29.7681 15.999 28.8901 17.0276 27.5685 17.2681L29.3692 20.0336C30.0857 21.1259 30.5263 21.4666 31.2373 21.4655L33.4766 21.4601V21.5981C33.1023 21.7685 32.8339 22.2116 32.5965 22.9653L30.338 29.841C30.0685 30.6625 29.628 30.9709 28.8495 30.9731H28.6464C29.0869 31.1768 29.4591 31.5542 29.6633 31.7925L28.9212 34.0503H28.8527C28.07 32.309 26.5419 31.3903 25.4597 31.9726C24.4428 32.5192 24.1412 34.1268 24.7208 36.0406C25.3678 38.0223 27.0648 39.3507 28.6592 38.9722C31.3357 38.3533 34.6496 34.1408 36.2034 31.4043V31.4054C40.9673 23.0569 40.1022 13.489 35.2495 10.7256C32.5003 9.15892 28.6035 9.74653 24.8106 12.0787C24.7433 12.1121 24.7433 12.1811 24.8106 12.1811ZM53.3659 6.60884H53.6968L54.7513 9.7883H56.4571L57.5117 6.60884H57.8425V9.7883H59.0831V5.61867H56.7001L55.6972 8.79793H55.5111L54.5084 5.61867H52.1253V9.7883H53.3659V6.60884ZM64.6007 8.79793H61.1477V8.18817H63.8408V7.2761H61.1477V6.60884H64.5748V5.61867H59.938V9.7883H64.6007V8.79793ZM66.5019 6.60884H66.8328L68.5645 9.7883H70.8596V5.61867H69.619V8.79793H69.2882L67.5565 5.61867H65.2614V9.7883H66.5019V6.60884ZM73.2494 5.61867H71.6211V7.65136H72.3654L73.2494 5.61867ZM73.9095 7.62518C74.1438 7.81642 74.504 7.94666 74.9899 8.0161C75.2208 8.05093 75.4998 8.08059 75.8273 8.10471C76.134 8.13274 76.37 8.15871 76.5355 8.18301C76.701 8.20734 76.8353 8.24463 76.9387 8.29512C77.0421 8.3454 77.0938 8.41401 77.0938 8.50099C77.0938 8.61906 76.9878 8.71468 76.7759 8.78762C76.5639 8.86058 76.2254 8.89705 75.7601 8.89705C75.0675 8.89705 74.4264 8.80329 73.8371 8.61556L73.6149 9.54866C73.8906 9.6424 74.2291 9.72153 74.6306 9.78563C75.032 9.84992 75.4327 9.88208 75.8325 9.88208C76.3425 9.88208 76.7854 9.82479 77.161 9.71021C77.5366 9.59543 77.8261 9.43222 78.0294 9.22017C78.2328 9.00833 78.3344 8.75816 78.3344 8.46966C78.3344 7.84774 77.8554 7.46713 76.8974 7.32823C76.6389 7.2899 76.2995 7.25179 75.8791 7.21345C75.5964 7.18585 75.3845 7.16132 75.2432 7.14051C75.1018 7.1197 74.989 7.08837 74.9046 7.04674C74.8201 7.00512 74.778 6.94763 74.778 6.87468C74.778 6.7566 74.8865 6.66551 75.1037 6.60101C75.3207 6.53692 75.6274 6.50479 76.0238 6.50479C76.5889 6.50479 77.1954 6.58473 77.8433 6.74443L78.0656 5.81671C77.7417 5.71944 77.4082 5.6465 77.0654 5.59786C76.7224 5.54923 76.3908 5.52471 76.0702 5.52471C75.5637 5.52471 75.1208 5.58137 74.7418 5.6943C74.3627 5.80722 74.0705 5.96878 73.8655 6.17898C73.6605 6.38917 73.558 6.63337 73.558 6.91114C73.558 7.19615 73.6751 7.43415 73.9095 7.62518ZM85.6075 8.79793H82.7231V8.71984C83.719 8.5218 84.4522 8.27679 84.9226 7.98499C85.393 7.69299 85.6283 7.34204 85.6283 6.93218C85.6283 6.63687 85.5161 6.38319 85.2922 6.17114C85.0682 5.95911 84.7683 5.79837 84.3928 5.68895C84.0171 5.57952 83.6052 5.52471 83.1573 5.52471C82.7438 5.52471 82.3621 5.56304 82.0123 5.6395C81.6625 5.71594 81.3308 5.82372 81.0172 5.96261L81.2395 6.89033C81.8632 6.64017 82.5008 6.51508 83.1521 6.51508C83.4761 6.51508 83.7629 6.55671 84.0129 6.64017C84.2626 6.72362 84.3876 6.85057 84.3876 7.02077C84.3876 7.14586 84.2946 7.27445 84.1085 7.40634C83.9224 7.53842 83.5803 7.69216 83.0823 7.86773C82.5844 8.0431 81.8805 8.24896 80.9707 8.48532V9.7883H85.6075L85.6075 8.79793ZM86.405 8.82926C86.1586 8.49913 86.0354 8.12388 86.0354 7.7035C86.0354 7.28311 86.1586 6.90785 86.405 6.57772C86.6513 6.2476 86.9943 5.9896 87.4337 5.80373C87.8731 5.61784 88.3719 5.52471 88.9302 5.52471C89.4885 5.52471 89.9873 5.61784 90.4267 5.80373C90.8661 5.9896 91.209 6.2476 91.4553 6.57772C91.7017 6.90785 91.825 7.28311 91.825 7.7035C91.825 8.12388 91.7017 8.49913 91.4553 8.82926C91.209 9.15938 90.8661 9.41737 90.4267 9.60326C89.9873 9.78913 89.4885 9.88208 88.9302 9.88208C88.3719 9.88208 87.8731 9.78913 87.4337 9.60326C86.9943 9.41737 86.6513 9.15938 86.405 8.82926ZM87.2605 7.7035C87.2605 7.93635 87.3311 8.14387 87.4724 8.32624C87.6138 8.50882 87.8111 8.65121 88.0643 8.75363C88.3176 8.85625 88.6062 8.90756 88.9302 8.90756C89.2541 8.90756 89.5428 8.85625 89.796 8.75363C90.0493 8.65121 90.2466 8.50882 90.3879 8.32624C90.5292 8.14387 90.5999 7.93635 90.5999 7.7035C90.5999 7.47063 90.5292 7.26312 90.3879 7.08054C90.2466 6.89816 90.0493 6.75578 89.796 6.65315C89.5428 6.55073 89.2541 6.49942 88.9302 6.49942C88.6062 6.49942 88.3176 6.55073 88.0643 6.65315C87.8111 6.75578 87.6138 6.89816 87.4724 7.08054C87.3311 7.26312 87.2605 7.47064 87.2605 7.7035ZM96.8469 8.79793H93.9625V8.71984C94.9584 8.5218 95.6917 8.27679 96.162 7.98499C96.6324 7.69299 96.8677 7.34204 96.8677 6.93218C96.8677 6.63687 96.7555 6.38319 96.5316 6.17114C96.3075 5.95911 96.0077 5.79837 95.6322 5.68895C95.2565 5.57952 94.8446 5.52471 94.3967 5.52471C93.9832 5.52471 93.6015 5.56304 93.2517 5.6395C92.9019 5.71594 92.5702 5.82372 92.2566 5.96261L92.479 6.89033C93.1026 6.64017 93.7402 6.51508 94.3915 6.51508C94.7155 6.51508 95.0023 6.55671 95.2523 6.64017C95.502 6.72362 95.627 6.85057 95.627 7.02077C95.627 7.14586 95.534 7.27445 95.3479 7.40634C95.1618 7.53842 94.8197 7.69216 94.3217 7.86773C93.8238 8.0431 93.1199 8.24896 92.2101 8.48532V9.7883H96.8469L96.8469 8.79793ZM100.391 6.60884V6.66098C99.967 6.86603 99.593 7.15802 99.2692 7.53678C98.9452 7.91554 98.6962 8.31058 98.5222 8.72251C98.3481 9.13425 98.2612 9.48951 98.2612 9.7883H99.7965C99.7965 9.45818 99.8516 9.10724 99.9618 8.73549C100.072 8.36375 100.268 8.00847 100.549 7.66949C100.829 7.33071 101.209 7.07622 101.688 6.90599V5.61867H97.1653L97.3203 6.60884H100.391ZM54.4632 20.8982H52.1238V13.0356H56.4907C57.8164 13.0356 58.8902 13.1306 59.7123 13.3206C60.5343 13.5106 61.137 13.8038 61.5205 14.2001C61.9039 14.5968 62.0957 15.106 62.0957 15.7285C62.0957 16.5213 61.7771 17.1209 61.1403 17.5271C60.5034 17.9335 59.493 18.1921 58.1089 18.3036C58.4598 18.6246 58.9876 18.8507 59.6928 18.9817C60.3979 19.1128 61.1696 19.1781 62.0079 19.1781V20.9277C61.0136 20.9277 60.0843 20.823 59.2201 20.6132C58.3558 20.4036 57.61 20.1054 56.983 19.7189C56.3559 19.3323 55.8896 18.8834 55.5842 18.3724H54.4632L54.4632 20.8982ZM54.4632 16.8784H56.4907C57.5174 16.8784 58.3184 16.8131 58.8935 16.6818C59.4686 16.5507 59.7562 16.2921 59.7562 15.9053C59.7562 15.5123 59.4652 15.2469 58.8838 15.1093C58.3021 14.9716 57.5044 14.9028 56.4907 14.9028H54.4632L54.4632 16.8784ZM63.1316 13.0356V16.5344C63.1316 18.0546 63.5475 19.1915 64.3794 19.9449C65.2111 20.6983 66.4653 21.075 68.142 21.075C69.8186 21.075 71.0743 20.6983 71.9094 19.9449C72.7443 19.1915 73.162 18.0546 73.162 16.5344V13.0356H70.8226V16.5344C70.8226 18.3167 69.9289 19.2078 68.142 19.2078C66.3613 19.2078 65.4711 18.3167 65.4711 16.5344V13.0356H63.1316ZM74.8969 14.9372C74.4354 15.5696 74.2049 16.2789 74.2049 17.0651C74.2049 17.8187 74.4177 18.4969 74.8433 19.0996C75.2689 19.7026 75.922 20.1825 76.8026 20.5394C77.6831 20.8968 78.7797 21.075 80.0924 21.075C81.0606 21.075 82.0062 20.975 82.9289 20.7754C83.8516 20.5755 84.6899 20.2726 85.4439 19.8662V16.2002H78.7473V17.871H83.2506V18.8047C82.3668 19.0866 81.3725 19.2274 80.2678 19.2274C77.7984 19.2274 76.5638 18.474 76.5638 16.9668C76.5638 16.1938 76.9049 15.6269 77.5872 15.2665C78.2697 14.9063 79.2898 14.726 80.648 14.726C81.8373 14.726 83.0557 14.8603 84.3034 15.1288L84.7713 13.3795C83.3221 13.0323 81.9411 12.8586 80.6286 12.8586C79.1923 12.8586 77.9933 13.0469 77.0316 13.4236C76.0698 13.8005 75.3583 14.305 74.8969 14.9372ZM92.4123 20.8982H86.788V13.0356H92.4123C93.2246 13.0356 93.9118 13.1223 94.474 13.2958C95.036 13.4696 95.4568 13.7104 95.7363 14.0183C96.0156 14.3264 96.1554 14.6866 96.1554 15.0994C96.1554 15.9776 95.4926 16.5279 94.1669 16.7506V16.7997C95.72 17.062 96.4966 17.7105 96.4966 18.7458C96.4966 19.473 96.1423 20.0137 95.4341 20.3676C94.7258 20.7214 93.7185 20.8982 92.4123 20.8982ZM89.0689 16.1707H92.4123C92.8607 16.1707 93.2148 16.1184 93.4749 16.0135C93.7346 15.9088 93.8647 15.7481 93.8647 15.5319C93.8647 15.3091 93.7331 15.1373 93.47 15.0159C93.2068 14.8947 92.8542 14.8342 92.4123 14.8342H89.0689L89.0689 16.1707ZM89.0689 19.0996H92.4123C92.9647 19.0996 93.3952 19.0341 93.7039 18.903C94.0125 18.772 94.1669 18.5822 94.1669 18.333C94.1669 18.0907 94.019 17.9203 93.7234 17.822C93.4277 17.7237 92.9906 17.6744 92.4123 17.6744H89.0689V19.0996ZM100.961 16.0036L98.6604 13.0356H96.0968L100.152 18.048V20.8982H102.491V18.048L106.546 13.0356H103.983L101.682 16.0036H100.961ZM58.0503 30.1829L59.2396 24.1875H59.5418L60.7309 30.1829H65.2344L67.0962 22.3203H64.6982L63.4214 28.3155H62.5245L61.2476 22.3203H57.5338L56.2568 28.3155H55.36L54.0831 22.3203H51.6852L53.547 30.1829H58.0503ZM73.0294 30.3597C71.8142 30.3597 70.7809 30.2008 69.9296 29.8831C69.0783 29.5653 68.4318 29.0986 67.9899 28.4826C67.5479 27.8669 67.3271 27.123 67.3271 26.2515C67.3271 25.3802 67.5479 24.6365 67.9899 24.0206C68.4318 23.4046 69.0783 22.9379 69.9296 22.6199C70.7809 22.3021 71.8142 22.1433 73.0294 22.1433C74.2445 22.1433 75.2778 22.3021 76.1291 22.6199C76.9804 22.9379 77.6269 23.4046 78.069 24.0206C78.5108 24.6365 78.7317 25.3802 78.7317 26.2515C78.7317 27.123 78.5108 27.8669 78.069 28.4826C77.6269 29.0986 76.9804 29.5653 76.1291 29.8831C75.2778 30.2008 74.2445 30.3597 73.0294 30.3597ZM70.5389 27.9126C71.1204 28.2992 71.9506 28.4925 73.0294 28.4925C74.108 28.4925 74.9383 28.2992 75.52 27.9126C76.1014 27.526 76.3923 26.9723 76.3923 26.2515C76.3923 25.5309 76.1014 24.9772 75.52 24.5906C74.9383 24.204 74.108 24.0107 73.0294 24.0107C71.9506 24.0107 71.1204 24.204 70.5389 24.5906C69.9572 24.9772 69.6665 25.5309 69.6665 26.2515C69.6665 26.9723 69.9572 27.526 70.5389 27.9126ZM88.6744 26.8118C88.0374 27.2182 87.0271 27.4768 85.643 27.5883C85.9939 27.9093 86.5217 28.1354 87.2269 28.2665C87.932 28.3975 88.7037 28.4628 89.542 28.4628V30.2124C88.5477 30.2124 87.6183 30.1077 86.7542 29.8979C85.8899 29.6883 85.1441 29.3901 84.517 29.0036C83.8899 28.617 83.4236 28.1681 83.1183 27.6571H81.9973V30.1829H79.6579V22.3203H84.0248C85.3505 22.3203 86.4243 22.4153 87.2464 22.6053C88.0684 22.7953 88.6711 23.0885 89.0546 23.4848C89.4379 23.8815 89.6297 24.3907 89.6297 25.0132C89.6297 25.806 89.3112 26.4056 88.6744 26.8118ZM87.2902 25.19C87.2902 24.797 86.9993 24.5316 86.4178 24.394C85.8362 24.2563 85.0385 24.1875 84.0248 24.1875H81.9973V26.1631H84.0248C85.0515 26.1631 85.8524 26.0978 86.4276 25.9665C87.0027 25.8354 87.2902 25.5768 87.2902 25.19ZM98.7728 28.3155H93.0704V22.3203H90.731V30.1829H98.7728V28.3155ZM103.956 30.1829H99.6091V22.3203L103.956 22.3104C105.185 22.3104 106.254 22.4693 107.163 22.787C108.073 23.105 108.773 23.5602 109.264 24.1533C109.755 24.7464 110 25.4456 110 26.2515C110 27.0575 109.755 27.7554 109.264 28.345C108.773 28.9347 108.073 29.3885 107.163 29.7063C106.254 30.024 105.185 30.1829 103.956 30.1829ZM101.948 28.3155H103.956C104.704 28.3155 105.357 28.2287 105.916 28.055C106.475 27.8815 106.905 27.639 107.207 27.3278C107.509 27.0166 107.661 26.6579 107.661 26.2515C107.661 25.8453 107.509 25.4866 107.207 25.1754C106.905 24.8642 106.475 24.6217 105.916 24.448C105.357 24.2745 104.704 24.1875 103.956 24.1875H101.948V28.3155ZM54.5119 39.1482C55.3698 39.479 56.377 39.6444 57.5338 39.6444C59.1063 39.6444 60.5945 39.3759 61.9982 38.8387L61.579 37.0892C60.3508 37.5479 59.0771 37.7772 57.758 37.7772C56.6077 37.7772 55.7222 37.5922 55.1017 37.2219C54.4811 36.8518 54.1708 36.3028 54.1708 35.5756C54.1708 34.8222 54.4876 34.2536 55.1212 33.8703C55.7548 33.487 56.6792 33.2954 57.8944 33.2954C59.0381 33.2954 60.2272 33.4526 61.462 33.7671L61.8812 32.0178C61.2312 31.8408 60.5311 31.6984 59.7806 31.5902C59.03 31.482 58.281 31.428 57.5338 31.428C56.377 31.428 55.3698 31.5968 54.5119 31.9341C53.6542 32.2716 52.9929 32.7532 52.5284 33.3789C52.0636 34.0047 51.8314 34.7369 51.8314 35.5756C51.8314 36.4011 52.0636 37.1203 52.5284 37.7329C52.9929 38.3456 53.6542 38.8175 54.5119 39.1482ZM62.7281 31.605V35.1039C62.7281 36.6241 63.1439 37.7609 63.9758 38.5144C64.8075 39.2678 66.0618 39.6444 67.7384 39.6444C69.415 39.6444 70.6708 39.2678 71.5059 38.5144C72.3408 37.7609 72.7584 36.6241 72.7584 35.1039V31.605H70.419V35.1039C70.419 36.8862 69.5254 37.7772 67.7384 37.7772C65.9578 37.7772 65.0675 36.8862 65.0675 35.1039V31.605H62.7281ZM82.272 36.7304C81.3881 37.2514 80.2314 37.5118 78.8018 37.5118C78.4378 37.5118 78.0138 37.4955 77.5297 37.4626C77.0455 37.43 76.6247 37.3873 76.2674 37.3348V39.4676H73.928V31.605L78.2949 31.5951H78.4119C79.5945 31.5951 80.5677 31.6901 81.3313 31.8801C82.0948 32.0703 82.6634 32.3699 83.0372 32.7794C83.4108 33.1891 83.5976 33.7148 83.5976 34.3569C83.5976 35.4184 83.1556 36.2094 82.272 36.7304ZM81.2581 34.5928C81.2581 34.2062 81.0209 33.9229 80.5466 33.7426C80.0722 33.5625 79.3216 33.4722 78.2949 33.4722H76.2674V35.7229C76.5533 35.7493 76.9042 35.7722 77.3201 35.7917C77.7359 35.8115 78.0966 35.8212 78.4021 35.8212C79.2728 35.8212 79.9666 35.7229 80.4833 35.5265C80.9998 35.3299 81.2581 35.0188 81.2581 34.5928ZM53.3349 45.217H56.0281V44.3049H53.3349V43.6377H56.7621V42.6475H52.1253V46.8171H56.788V45.8268H53.3349V45.217ZM61.538 42.6475L60.3801 44.232H59.7908L58.6329 42.6475H57.1855L58.7518 44.7323L57.1855 46.8171H58.6329L59.8011 45.2222H60.3697L61.538 46.8171H62.9854L61.4191 44.7323L62.9854 42.6475H61.538ZM68.2999 43.2702C68.4981 43.4874 68.5972 43.7663 68.5972 44.1069C68.5972 44.6697 68.3628 45.0892 67.8941 45.3656C67.4254 45.6417 66.812 45.78 66.0539 45.78C65.8608 45.78 65.636 45.7713 65.3793 45.7538C65.1225 45.7365 64.8994 45.714 64.7098 45.686V46.8171H63.4693V42.6475L65.7851 42.6422H65.8471C66.4743 42.6422 66.9903 42.6926 67.3953 42.7934C67.8002 42.8942 68.1017 43.0533 68.2999 43.2702ZM67.3565 44.232C67.3565 44.0269 67.2307 43.8767 66.9791 43.7811C66.7276 43.6855 66.3295 43.6377 65.7851 43.6377H64.7098V44.8312C64.8615 44.8453 65.0476 44.8574 65.2681 44.8677C65.4886 44.8782 65.6799 44.8834 65.8419 44.8834C66.3037 44.8834 66.6716 44.8312 66.9456 44.7272C67.2196 44.6229 67.3565 44.4579 67.3565 44.232ZM70.3273 45.217H73.0204V44.3049H70.3273V43.6377H73.7544V42.6475H69.1176V46.8171H73.7803V45.8268H70.3273V45.217ZM79.2225 45.0295C78.8847 45.2448 78.3488 45.3821 77.6148 45.4412C77.8009 45.6114 78.0809 45.7314 78.4548 45.8008C78.8287 45.8703 79.238 45.9051 79.6826 45.9051V46.8328C79.1553 46.8328 78.6625 46.7772 78.2042 46.6661C77.7458 46.5548 77.3503 46.3968 77.0179 46.1917C76.6852 45.9867 76.4379 45.7487 76.276 45.4777H75.6815V46.8171H74.441V42.6475H76.7568C77.4598 42.6475 78.0292 42.6978 78.4652 42.7986C78.9011 42.8995 79.2207 43.0549 79.4241 43.2651C79.6274 43.4753 79.7291 43.7455 79.7291 44.0756C79.7291 44.496 79.5602 44.8139 79.2225 45.0295ZM78.4884 44.1694C78.4884 43.961 78.3342 43.8202 78.0258 43.7473C77.7173 43.6742 77.2944 43.6377 76.7568 43.6377H75.6815V44.6853H76.7568C77.3012 44.6853 77.726 44.6507 78.0309 44.5811C78.336 44.5116 78.4884 44.3744 78.4884 44.1694ZM80.4656 46.8171H81.7063V42.6475H80.4656V46.8171ZM83.7739 45.217H86.4671V44.3049H83.7739V43.6377H87.2011V42.6475H82.5643V46.8171H87.227V45.8268H83.7739V45.217ZM92.2463 45.8268H91.9155L90.1838 42.6475H87.8887V46.8171H89.1292V43.6377H89.4601L91.1918 46.8171H93.487V42.6475H92.2463V45.8268ZM97.2527 45.9207C96.6427 45.9207 96.1732 45.8224 95.8441 45.6263C95.515 45.4299 95.3504 45.1389 95.3504 44.7531C95.3504 44.3536 95.5185 44.0521 95.8545 43.8489C96.1904 43.6455 96.6806 43.5439 97.3251 43.5439C97.9316 43.5439 98.5622 43.6274 99.2171 43.7941L99.4393 42.8664C99.0947 42.7726 98.7234 42.697 98.3254 42.6397C97.9273 42.5824 97.5301 42.5536 97.1339 42.5536C96.5204 42.5536 95.9863 42.6432 95.5313 42.8221C95.0765 43.0011 94.7258 43.2564 94.4794 43.5882C94.233 43.9202 94.1098 44.3084 94.1098 44.7531C94.1098 45.191 94.233 45.5723 94.4794 45.8973C94.7258 46.2222 95.0765 46.4724 95.5313 46.6478C95.9863 46.8231 96.5204 46.9109 97.1339 46.9109C97.9678 46.9109 98.757 46.7685 99.5014 46.4835L99.2791 45.5558C98.6277 45.7992 97.9523 45.9207 97.2527 45.9207ZM101.247 45.217H103.94V44.3049H101.247V43.6377H104.674V42.6475H100.037V46.8171H104.7V45.8268H101.247V45.217ZM108.456 44.3571C108.198 44.3187 107.858 44.2806 107.438 44.2423C107.155 44.2147 106.943 44.1902 106.802 44.1694C106.66 44.1485 106.548 44.1172 106.463 44.0756C106.379 44.034 106.337 43.9765 106.337 43.9035C106.337 43.7854 106.445 43.6943 106.662 43.6299C106.879 43.5658 107.186 43.5336 107.582 43.5336C108.148 43.5336 108.754 43.6136 109.402 43.7733L109.624 42.8456C109.3 42.7483 108.967 42.6753 108.624 42.6267C108.281 42.5781 107.949 42.5536 107.629 42.5536C107.122 42.5536 106.679 42.6102 106.3 42.7231C105.921 42.8361 105.629 42.9976 105.424 43.2078C105.219 43.418 105.117 43.6622 105.117 43.94C105.117 44.225 105.234 44.463 105.468 44.654C105.702 44.8453 106.063 44.9755 106.549 45.0449C106.779 45.0798 107.058 45.1094 107.386 45.1335C107.693 45.1616 107.929 45.1875 108.094 45.2119C108.26 45.2362 108.394 45.2735 108.497 45.324C108.601 45.3742 108.652 45.4429 108.652 45.5298C108.652 45.6479 108.546 45.7435 108.335 45.8165C108.123 45.8894 107.784 45.9259 107.319 45.9259C106.626 45.9259 105.985 45.8321 105.396 45.6444L105.174 46.5775C105.449 46.6712 105.788 46.7504 106.189 46.8145C106.591 46.8788 106.991 46.9109 107.391 46.9109C107.901 46.9109 108.344 46.8536 108.72 46.739C109.095 46.6243 109.385 46.4611 109.588 46.249C109.791 46.0372 109.893 45.787 109.893 45.4985C109.893 44.8766 109.414 44.496 108.456 44.3571Z" fill="white"></path></svg> 