<?xml version="1.0" encoding="UTF-8"?> <svg xmlns="http://www.w3.org/2000/svg" width="330" height="48" viewBox="0 0 330 48" fill="none"><g clip-path="url(#clip0_44_863)"><path d="M17.1733 20.2521C18.6721 17.6576 20.6852 15.3364 22.7663 13.6605C23.5189 13.0796 23.8585 13.1796 23.8596 13.7949L23.8726 19.9993C23.8736 20.9889 23.6364 21.431 23.0542 21.4321L19.9456 21.4375V21.5751C20.2194 21.6752 20.4933 22.0173 20.7693 22.937L23.3151 30.9098H23.5534C24.5087 30.9076 24.7503 30.7022 25.0543 29.7803L26.6836 24.7344H26.7159L28.7441 30.8334C28.2643 30.6645 27.7187 30.5623 27.1354 30.5634C23.2385 30.5709 22.2562 34.8703 23.218 37.2895C23.975 39.1622 25.7552 40.3196 27.6001 40.0755C27.8049 40.0421 27.7371 40.1109 27.6001 40.1777C23.7755 42.1956 20.3919 42.202 18.133 40.9112C13.2064 38.093 12.3341 28.6165 17.1733 20.2521ZM48.0418 22.8036C48.7308 25.7057 48.5281 28.397 47.4218 31.0334C46.1699 34.0184 43.7622 36.9711 40.0626 40.0615C36.4817 43.0529 31.7438 45.3268 26.3612 46.6391C22.9797 47.4631 19.4064 47.8869 15.9818 47.8869C14.5801 47.8869 13.2064 47.8169 11.8779 47.6739C5.93677 47.0317 1.64414 45.0063 0.395564 42.2558C-0.357083 40.5993 -0.0346597 38.7599 1.35415 36.7893C4.35169 32.533 6.9492 29.5705 9.2416 26.9567C11.0228 24.9258 12.5799 23.1489 13.9331 21.2073C14.0744 20.9889 14.2146 20.7695 14.3537 20.5512C14.5531 20.2198 14.7537 19.8885 14.9564 19.5583C15.1192 19.2776 15.2853 18.9968 15.4567 18.715C15.5688 18.5203 15.6853 18.3288 15.8028 18.1384C16.6255 16.5658 17.349 14.805 17.9831 12.7021C18.9395 9.53102 20.6432 6.51162 22.7835 4.19898C25.009 1.7927 27.5785 0.319068 30.0208 0.0469186C32.5191 -0.230598 36.1485 0.592281 39.2561 6.08246C40.2373 7.81749 41.2692 9.48689 42.2677 11.1015C44.7693 15.1492 47.1317 18.9721 48.0407 22.8047L48.0418 22.8036ZM12.8937 33.1278C13.1676 37.1637 14.8249 40.2723 17.5647 41.8836C18.7648 42.5828 20.145 42.9378 21.6664 42.9378H21.6847C24.9152 42.9324 28.7452 41.2867 31.9315 38.5373C34.6617 36.4645 37.0532 33.2515 38.6706 29.4834C40.232 25.8434 40.976 21.9603 40.7635 18.5494L40.7646 18.5483C40.5091 14.4403 38.8571 11.3069 36.1151 9.72572C34.9571 9.04158 33.5974 8.69523 32.0749 8.69523H32.0565C28.715 8.70168 24.582 10.4808 21.523 13.2291C18.8489 15.3482 16.5091 18.5601 14.9294 22.2829C13.3886 25.9134 12.6651 29.7653 12.8937 33.1278ZM7.9779 34.9467C8.03394 34.3497 8.15146 33.7689 8.32829 33.2192H8.32938C8.84911 31.5971 9.45508 30.0083 10.1657 28.4034C9.16613 30.159 8.15364 32.1113 7.18534 34.3153C6.95138 34.8488 6.78531 35.4049 6.69149 35.9686C6.35077 38.0253 6.97295 39.9281 8.49114 41.4728C9.91015 42.9162 12.0709 44.0274 14.7375 44.6868C16.4325 45.1063 18.2203 45.2967 20.0652 45.2558C18.4532 45.2236 16.8983 44.9687 15.4405 44.4975C10.3576 42.8539 7.56816 39.2838 7.9779 34.9467ZM9.6686 28.0367C8.255 30.1019 6.80148 32.3823 5.29302 35.1737C4.98354 35.747 4.75712 36.3343 4.62234 36.9184C4.26868 38.4383 4.51017 39.8485 5.33507 41.1124C6.73141 43.2487 9.73441 44.8492 13.7908 45.6194C15.956 46.0303 18.2473 46.1529 20.5989 45.983C26.7882 45.5043 32.8631 43.126 37.2699 39.4569C42.5998 35.0199 44.9191 30.5752 44.793 25.0452C44.7251 22.0226 44.0468 18.8054 42.782 15.4815C42.5233 14.8028 42.231 14.1252 41.9054 13.4464C42.2817 14.3016 42.603 15.1782 42.864 16.0764C43.8225 19.384 44.1611 22.7918 43.8721 26.2016C43.6565 28.7423 43.0225 30.9872 41.9334 33.0611C40.6924 35.4243 38.8582 37.5939 36.3265 39.6968C34.1624 41.4942 31.6673 42.9485 28.9112 44.022C26.3127 45.0332 23.5469 45.6581 20.9127 45.8313L20.9009 45.8324H20.8911C20.4544 45.8571 20.0123 45.87 19.58 45.87C17.8569 45.87 16.177 45.671 14.5898 45.2795C11.8122 44.5922 9.55321 43.4229 8.05442 41.8998C6.39283 40.2099 5.71243 38.1253 6.08657 35.8696C6.18798 35.2554 6.36912 34.6509 6.62361 34.0711V34.0689C7.61453 31.8155 8.64858 29.8244 9.6686 28.0367ZM33.8745 39.5054C33.4604 39.8453 33.0335 40.1712 32.5968 40.4853C33.2944 40.0206 33.9662 39.5226 34.6013 38.9987C38.5402 35.7417 40.8066 32.0112 41.7329 27.2579C41.9647 26.0682 42.1178 24.8764 42.1954 23.6953C41.9906 25.3271 41.6293 26.99 41.1161 28.6498C40.4584 30.7785 39.5386 32.7513 38.3827 34.5143C37.1643 36.3709 35.6472 38.05 33.8745 39.5054ZM37.5816 33.9926C38.1519 33.1235 38.662 32.1984 39.1095 31.227C38.3277 32.8202 37.4102 34.3013 36.3901 35.6276C36.8149 35.0995 37.2128 34.5541 37.5816 33.9926ZM28.8983 43.3788C31.4581 42.358 33.8616 40.951 35.9351 39.2289C40.5619 35.3888 42.8208 31.3551 43.2629 26.1511C43.484 23.5361 43.3255 20.9223 42.7961 18.3547C43.1972 21.2331 43.1012 24.3321 42.5017 27.4085C41.5388 32.349 39.1871 36.2235 35.1005 39.6011C33.2577 41.1253 31.1228 42.4236 28.8983 43.3788ZM9.66429 27.2762C7.76869 29.6727 5.67147 32.4189 3.40064 36.0363C3.01465 36.6495 2.73002 37.2669 2.55313 37.8725C2.12613 39.3311 2.30837 40.6886 3.09553 41.9084C4.55653 44.1769 8.10941 45.87 12.8441 46.5552C15.2443 46.9005 17.7631 46.9661 20.3283 46.7456C27.2917 46.1422 33.9543 43.5692 38.6059 39.6893C44.6981 34.6068 47.0789 29.7513 46.3252 23.946C45.9694 21.2073 45.0043 18.2772 43.2888 14.7232C41.9367 11.9244 40.1575 9.15023 38.5973 6.77086C37.2354 4.69594 35.7938 3.29112 34.1883 2.47682C33.1327 1.94006 32.0166 1.67333 30.8661 1.67333C29.4439 1.67333 27.97 2.081 26.4906 2.89633C24.058 4.23663 21.7786 6.59661 20.0749 9.53962C19.5681 10.4163 19.1335 11.2908 18.7745 12.1524C19.1163 11.479 19.5196 10.7809 19.9941 10.0441C21.3666 7.91105 23.0682 6.10178 24.9131 4.81315C26.8852 3.4363 28.9609 2.70808 30.9168 2.70808C31.9627 2.70808 32.9784 2.91246 33.9381 3.318C35.5512 3.99997 37.0284 5.23697 38.4528 7.09999C40.6061 9.9161 42.1567 12.6074 43.1929 15.3277C44.476 18.6989 45.1617 21.9646 45.2329 25.0366C45.2944 27.7258 44.7995 30.1234 43.719 32.3683C42.4812 34.9424 40.4638 37.3712 37.5525 39.7947C33.0777 43.5208 26.9122 45.9367 20.6388 46.4218H20.6291C19.9445 46.4703 19.2533 46.496 18.575 46.496C16.9015 46.496 15.2637 46.3465 13.7088 46.0507C9.53383 45.259 6.42953 43.5896 4.96737 41.3522C4.07454 39.9862 3.81366 38.462 4.19425 36.8205C4.33766 36.1988 4.57811 35.5749 4.90593 34.9671H4.90697C6.53623 31.9531 8.14606 29.4684 9.66429 27.2762ZM38.0635 7.55073L38.0625 7.54964C38.6135 8.16168 39.1246 8.79419 39.5968 9.44281C39.1364 8.75763 38.6383 8.06488 38.1035 7.36463C36.7254 5.56292 35.3064 4.37217 33.7656 3.72137C32.8567 3.33737 31.8991 3.1459 30.9136 3.1459C29.4935 3.1459 28.0141 3.54279 26.5305 4.33126C24.2359 5.55105 22.046 7.6626 20.3628 10.2797C20.2107 10.5174 20.0673 10.7497 19.9293 10.9789C20.0026 10.8745 20.0781 10.7691 20.1558 10.6615C21.5683 8.71241 23.2817 7.06453 25.1093 5.89745C27.0664 4.6486 29.1096 3.98706 31.0182 3.98706C31.8851 3.98706 32.7315 4.12152 33.5349 4.38721C35.1458 4.92072 36.6273 5.9555 38.0635 7.55073ZM35.8089 7.50339C34.8881 6.87304 33.9327 6.44603 32.9159 6.21155C32.3693 6.08568 31.801 6.02436 31.2209 6.02436C28.4292 6.02436 25.3271 7.44746 22.6412 9.95699C23.6288 9.18466 24.6715 8.51558 25.7347 7.97667C27.7101 6.97415 29.7103 6.44388 31.5207 6.44388C31.8883 6.44388 32.2517 6.46537 32.6032 6.50732C33.7333 6.64499 34.805 6.97845 35.8089 7.50339ZM32.4879 7.45498C32.1763 7.41734 31.8549 7.398 31.5282 7.398C30.0143 7.398 28.3549 7.80027 26.6728 8.58123C26.0841 8.85444 25.5007 9.17069 24.9281 9.52347C25.3573 9.30079 25.794 9.09213 26.2361 8.90178C28.2503 8.0348 30.2634 7.5744 32.0533 7.57119H32.076C32.6604 7.57119 33.2243 7.61744 33.7667 7.70886C33.3537 7.59268 32.9278 7.50769 32.4879 7.45498ZM37.5212 7.86589V7.86374C36.1852 6.40299 34.818 5.45424 33.3418 4.96589C32.5978 4.72065 31.8194 4.59805 31.0182 4.59805C29.5884 4.59805 28.0853 4.9885 26.5747 5.75976C24.6715 6.73216 22.8126 8.29723 21.2631 10.2205C22.515 8.90931 23.9167 7.79385 25.3724 6.95588C27.3273 5.83287 29.3447 5.23807 31.2047 5.23807C31.8506 5.23807 32.4857 5.31012 33.0927 5.44997C34.6854 5.81784 36.1345 6.60843 37.5212 7.86589ZM11.9955 28.4454C11.5567 29.8352 11.2116 31.2238 10.9636 32.6029C10.8805 33.0719 10.8342 33.5537 10.8256 34.0733C10.7922 36.088 11.3108 37.8897 12.3686 39.4311C13.3649 40.8811 14.8367 42.0536 16.6255 42.8205C16.9512 42.9604 17.2865 43.082 17.6272 43.1895C17.4105 43.0863 17.1992 42.9765 16.9921 42.8549C13.9234 41.05 12.0677 37.6229 11.768 33.2052H11.7669C11.6645 31.6907 11.7443 30.0847 11.9955 28.4454ZM10.9712 28.5164C10.2325 30.1664 9.60716 31.795 9.07449 33.458C8.91596 33.9539 8.80815 34.4788 8.75747 35.0209C8.56443 37.0658 9.12621 38.8922 10.4299 40.4498C11.6354 41.8901 13.4512 43.0335 15.681 43.7542C16.4703 44.0092 17.2887 44.1974 18.1286 44.3168C17.4795 44.1619 16.852 43.9554 16.2471 43.6972C14.2922 42.8582 12.678 41.5696 11.5793 39.9701C10.4072 38.263 9.83249 36.273 9.87023 34.0572C9.87995 33.4849 9.93058 32.9546 10.0233 32.434L10.0212 32.4351C10.2552 31.1345 10.5722 29.8255 10.9712 28.5164ZM47.8563 22.8455C46.9549 19.0442 44.5989 15.2331 42.1049 11.1983C41.1064 9.58266 40.0734 7.91105 39.0901 6.17388C36.8645 2.24019 34.0373 0.186766 30.8715 0.186766C30.5977 0.186766 30.3205 0.201804 30.0402 0.233018C27.6443 0.499775 25.1147 1.95298 22.9204 4.32587C20.7995 6.61704 19.1098 9.61168 18.1621 12.7559C17.9453 13.4798 17.7157 14.1617 17.4752 14.8103C17.7049 14.2499 17.927 13.6658 18.1426 13.0527C18.561 11.8609 19.1347 10.6347 19.8441 9.40626C21.1855 7.08927 22.8848 5.11867 24.76 3.70631C26.7558 2.20252 28.8692 1.40764 30.8705 1.40764C32.0663 1.40764 33.2233 1.68731 34.3101 2.23913C35.9577 3.07489 37.4328 4.50984 38.8205 6.62459C40.3861 9.01148 42.1717 11.7942 43.5293 14.6081C45.2577 18.1879 46.2303 21.1438 46.5894 23.9115C46.9528 26.7136 46.6023 29.2554 45.5176 31.6831C44.2787 34.4562 42.0736 37.1422 38.7763 39.8916C36.3243 41.9374 33.3861 43.6047 30.0434 44.846C27.0028 45.9744 23.6515 46.7241 20.3509 47.0102C19.3632 47.0941 18.3669 47.1372 17.3857 47.1372C15.8201 47.1372 14.2792 47.0296 12.8063 46.8166C10.4557 46.4767 8.40272 45.9002 6.70449 45.1042C4.93067 44.2737 3.64109 43.2476 2.87015 42.0514C2.0399 40.7639 1.8469 39.3322 2.29651 37.7972C2.47984 37.169 2.77524 36.529 3.17313 35.8944C5.84507 31.6391 8.27444 28.5874 10.4169 25.895C10.0805 26.2834 9.73544 26.676 9.38069 27.0804C7.09261 29.6911 4.49722 32.6491 1.50613 36.8969C0.158333 38.8094 -0.158682 40.5875 0.563764 42.1795C1.78541 44.8686 6.02087 46.8532 11.8952 47.4878C16.4498 47.9794 21.5704 47.6148 26.3137 46.4584C31.6684 45.1525 36.3804 42.8916 39.9397 39.9195C43.6166 36.8485 46.006 33.9195 47.246 30.9624V30.9603C48.3351 28.3626 48.5356 25.7079 47.8563 22.8455ZM25.0176 12.1524L26.4884 12.1492C28.7452 12.1449 30.0122 13.0624 30.0143 14.6662C30.0165 15.9613 29.1312 16.9875 27.7985 17.2274L29.6143 19.9864C30.3367 21.0761 30.781 21.416 31.498 21.4149L33.7559 21.4095V21.5472C33.3785 21.7172 33.1078 22.1593 32.8685 22.9111L30.5912 29.7706C30.3195 30.5903 29.8752 30.8979 29.0903 30.9001H28.8854C29.3296 31.1034 29.7049 31.4799 29.9108 31.7176L29.1625 33.97H29.0935C28.3042 32.2328 26.7634 31.3163 25.6722 31.8972C24.6467 32.4426 24.3427 34.0464 24.9271 35.9557C25.5794 37.9328 27.2906 39.258 28.8983 38.8804C31.5972 38.263 34.9388 34.0604 36.5054 31.3303V31.3314C41.3091 23.0026 40.4368 13.4572 35.5436 10.7002C32.7715 9.13733 28.8423 9.72355 25.0177 12.0502C24.9497 12.0835 24.9497 12.1524 25.0176 12.1524ZM28.1683 14.9448V14.9437C28.1662 13.8874 27.5505 13.3087 26.4884 13.3109L25.7035 13.313L25.7099 16.653H26.1887C27.2831 16.6519 28.1694 15.8989 28.1683 14.9448ZM24.2996 28.3217H24.3319L25.6905 24.1578C25.9988 23.1683 26.6113 22.7573 27.296 22.7552H27.9118L29.8009 28.3077H29.8343L31.4646 22.9176C31.7363 21.9958 31.5638 21.5537 30.9146 21.5548L29.8893 21.5558C28.8293 21.558 28.4541 21.3891 27.9408 20.5382L25.7455 16.9273H25.7121L25.7196 20.9191C25.7207 21.3611 25.5158 21.5677 25.0716 21.5677L23.6342 21.5709C22.7112 21.5719 22.4384 22.0162 22.7145 22.9359V22.937L24.2996 28.3217ZM59.7749 16.3105H60.5928L63.2009 24.0898H67.4196L70.0272 16.3105H70.8456V24.0898H73.9137V13.8874H68.0204L65.5405 21.6668H65.08L62.6001 13.8874H56.7068V24.0898H59.7749V16.3105ZM87.2977 21.6668H78.7584V20.1744H85.4186V17.9428H78.7584V16.3105H87.2341V13.8874H75.7671V24.0898H87.2977V21.6668ZM91.9957 16.3105H92.8136L97.0964 24.0898H102.773V13.8874H99.7045V21.6668H98.8861L94.6034 13.8874H88.9277V24.0898H91.9957V16.3105ZM108.678 13.8874H104.651V18.861H106.492L108.678 13.8874ZM110.307 18.7975C110.886 19.265 111.777 19.5838 112.978 19.7539C113.549 19.8387 114.24 19.9114 115.049 19.9705C115.808 20.0388 116.392 20.1027 116.801 20.1618C117.21 20.2215 117.542 20.313 117.798 20.4361C118.054 20.5597 118.181 20.7273 118.181 20.94C118.181 21.2288 117.919 21.4628 117.395 21.6411C116.871 21.8199 116.034 21.909 114.883 21.909C113.17 21.909 111.585 21.6794 110.128 21.2205L109.578 23.503C110.26 23.7327 111.097 23.926 112.09 24.0835C113.083 24.2405 114.074 24.3195 115.062 24.3195C116.323 24.3195 117.418 24.179 118.348 23.8984C119.277 23.6179 119.993 23.2187 120.495 22.6997C120.998 22.1813 121.249 21.5689 121.249 20.8634C121.249 19.3416 120.065 18.4108 117.696 18.0702C117.057 17.9772 116.217 17.8837 115.177 17.7897C114.479 17.7218 113.954 17.6623 113.605 17.6114C113.255 17.5605 112.976 17.4839 112.768 17.3817C112.559 17.28 112.454 17.1395 112.454 16.9612C112.454 16.6719 112.723 16.449 113.259 16.2916C113.797 16.1341 114.555 16.0556 115.535 16.0556C116.933 16.0556 118.433 16.2514 120.035 16.6423L120.585 14.3719C119.784 14.134 118.959 13.9557 118.111 13.8365C117.263 13.7174 116.443 13.6577 115.65 13.6577C114.397 13.6577 113.302 13.7963 112.365 14.0725C111.427 14.3487 110.705 14.744 110.198 15.2586C109.691 15.7731 109.437 16.37 109.437 17.0503C109.437 17.7475 109.727 18.3299 110.307 18.7975ZM139.236 21.6668H132.103V21.4754C134.566 20.9909 136.379 20.3915 137.542 19.6773C138.706 18.9632 139.287 18.1046 139.287 17.1012C139.287 16.3788 139.01 15.7581 138.456 15.2392C137.902 14.7208 137.161 14.3274 136.232 14.0599C135.303 13.792 134.284 13.6578 133.176 13.6578C132.154 13.6578 131.21 13.7517 130.345 13.9383C129.48 14.1258 128.66 14.3894 127.884 14.729L128.434 16.9994C129.976 16.387 131.553 16.0808 133.164 16.0808C133.965 16.0808 134.674 16.183 135.292 16.387C135.91 16.591 136.219 16.9016 136.219 17.3183C136.219 17.624 135.989 17.9389 135.529 18.2616C135.069 18.5848 134.223 18.9612 132.991 19.3905C131.76 19.8198 130.019 20.3237 127.769 20.9017V24.0898H139.236V21.6668ZM141.205 21.7433C140.595 20.9356 140.291 20.0175 140.291 18.9889C140.291 17.9602 140.595 17.0421 141.205 16.2339C141.814 15.4262 142.662 14.7954 143.749 14.3404C144.835 13.8855 146.069 13.6578 147.45 13.6578C148.83 13.6578 150.064 13.8855 151.151 14.3404C152.237 14.7954 153.085 15.4262 153.694 16.2339C154.304 17.0421 154.608 17.9602 154.608 18.9889C154.608 20.0175 154.304 20.9356 153.694 21.7433C153.085 22.551 152.237 23.1823 151.151 23.6373C150.064 24.0918 148.83 24.3195 147.45 24.3195C146.069 24.3195 144.835 24.0918 143.749 23.6373C142.662 23.1823 141.814 22.551 141.205 21.7433ZM143.321 18.9889C143.321 19.5582 143.495 20.0664 143.845 20.5127C144.194 20.9589 144.682 21.3077 145.308 21.5582C145.935 21.8092 146.648 21.9347 147.45 21.9347C148.251 21.9347 148.965 21.8092 149.591 21.5582C150.217 21.3077 150.705 20.9589 151.055 20.5127C151.404 20.0664 151.579 19.5582 151.579 18.9889C151.579 18.4191 151.404 17.9108 151.055 17.4646C150.705 17.0183 150.217 16.67 149.591 16.419C148.965 16.1685 148.251 16.0425 147.45 16.0425C146.648 16.0425 145.935 16.1685 145.308 16.419C144.682 16.67 144.194 17.0183 143.845 17.4646C143.495 17.9108 143.321 18.4191 143.321 18.9889ZM165.329 19.6773C166.492 18.9632 167.073 18.1046 167.073 17.1012C167.073 16.3788 166.797 15.7581 166.243 15.2392C165.689 14.7208 164.947 14.3274 164.018 14.0599C163.089 13.792 162.071 13.6578 160.963 13.6578C159.94 13.6578 158.996 13.7517 158.131 13.9383C157.266 14.1258 156.446 14.3894 155.671 14.729L156.22 16.9994C157.763 16.387 159.339 16.0808 160.95 16.0808C161.751 16.0808 162.461 16.183 163.079 16.387C163.696 16.591 164.005 16.9016 164.005 17.3183C164.005 17.624 163.776 17.9389 163.315 18.2616C162.855 18.5848 162.009 18.9612 160.777 19.3905C159.546 19.8198 157.806 20.3237 155.555 20.9017V24.0898H167.022V21.6668H159.889V21.4754C162.352 20.9909 164.165 20.3915 165.329 19.6773ZM175.783 16.3105V16.4379C174.735 16.9399 173.81 17.654 173.009 18.5804C172.208 19.5073 171.592 20.4744 171.162 21.4817C170.732 22.4895 170.516 23.3587 170.516 24.0898H174.313C174.313 23.2821 174.45 22.4236 174.722 21.5136C174.995 20.6042 175.479 19.7345 176.173 18.906C176.868 18.077 177.808 17.4539 178.992 17.0372V13.8874H167.806L168.19 16.3105L175.783 16.3105ZM197.72 19.7156C196.885 20.2428 195.56 20.5785 193.744 20.7229C194.205 21.1396 194.897 21.4332 195.822 21.6028C196.746 21.7733 197.759 21.8582 198.858 21.8582V24.1281C197.554 24.1281 196.335 23.9919 195.202 23.7201C194.068 23.4478 193.09 23.0612 192.268 22.5592C191.445 22.0578 190.834 21.4754 190.433 20.8121H188.963V24.0898H185.895V13.8874H191.622C193.361 13.8874 194.769 14.011 195.847 14.2571C196.925 14.5042 197.716 14.8845 198.218 15.3986C198.722 15.9132 198.973 16.574 198.973 17.3817C198.973 18.4108 198.555 19.1885 197.72 19.7156ZM195.905 17.6114C195.905 17.1012 195.523 16.7567 194.761 16.5784C193.998 16.3996 192.952 16.3105 191.622 16.3105H188.963V18.874H191.622C192.969 18.874 194.019 18.7892 194.773 18.6187C195.528 18.4486 195.905 18.1129 195.905 17.6114ZM202.055 22.8528C203.145 23.8306 204.79 24.3195 206.989 24.3195C209.188 24.3195 210.835 23.8306 211.93 22.8528C213.025 21.8751 213.573 20.4002 213.573 18.4273V13.8874H210.505V18.4273C210.505 20.7404 209.333 21.8964 206.989 21.8964C204.654 21.8964 203.487 20.7404 203.487 18.4273V13.8874H200.418V18.4273C200.418 20.4002 200.964 21.8751 202.055 22.8528ZM218.347 23.6242C219.502 24.0879 220.94 24.3195 222.662 24.3195C223.932 24.3195 225.172 24.1896 226.382 23.9304C227.592 23.6712 228.691 23.2782 229.68 22.7506V17.9941H220.897V20.1618H226.804V21.3736C225.645 21.7389 224.341 21.9216 222.892 21.9216C219.653 21.9216 218.034 20.9444 218.034 18.9889C218.034 17.9854 218.482 17.2499 219.376 16.7824C220.271 16.3148 221.609 16.0808 223.391 16.0808C224.95 16.0808 226.548 16.2552 228.184 16.6041L228.798 14.3337C226.898 13.8836 225.087 13.6578 223.365 13.6578C221.481 13.6578 219.909 13.9024 218.648 14.3913C217.386 14.8802 216.453 15.5348 215.848 16.355C215.243 17.1758 214.941 18.0959 214.941 19.1163C214.941 20.094 215.219 20.9739 215.778 21.7559C216.336 22.5384 217.192 23.161 218.347 23.6242ZM238.901 24.0898H231.525V13.8874H238.901C239.966 13.8874 240.867 14.0003 241.605 14.2256C242.342 14.4509 242.894 14.7634 243.26 15.1627C243.627 15.5624 243.81 16.0299 243.81 16.5658C243.81 17.7049 242.941 18.4191 241.202 18.7083V18.7718C243.239 19.1119 244.257 19.9535 244.257 21.2971C244.257 22.2404 243.793 22.942 242.864 23.4013C241.935 23.8601 240.614 24.0898 238.901 24.0898ZM234.516 17.9559H238.901C239.489 17.9559 239.953 17.8876 240.294 17.7514C240.635 17.6158 240.806 17.4074 240.806 17.1269C240.806 16.8376 240.633 16.6147 240.288 16.4573C239.943 16.2998 239.48 16.2213 238.901 16.2213H234.516V17.9559ZM234.516 21.7559H238.901C239.625 21.7559 240.19 21.6711 240.595 21.501C241 21.331 241.202 21.0844 241.202 20.7612C241.202 20.4467 241.008 20.2258 240.62 20.0984C240.233 19.9705 239.66 19.907 238.901 19.907H234.516V21.7559ZM249.051 24.0898H252.119V20.3915L257.437 13.8874H254.075L251.058 17.7388H250.112L247.095 13.8874H243.733L249.051 20.3915V24.0898ZM70.5008 34.4196H69.3244L67.6498 26.6403H62.7793L61.1047 34.4196H59.9284L58.2537 26.6403H55.1089L57.5505 36.8427H63.4569L65.0164 29.0633H65.4127L66.9723 36.8427H72.8782L75.3202 26.6403H72.1754L70.5008 34.4196ZM89.6761 28.8468C90.2555 29.6457 90.545 30.6109 90.545 31.7417C90.545 32.8726 90.2555 33.8372 89.6761 34.6362C89.0962 35.4356 88.2482 36.0413 87.1321 36.4536C86.0155 36.8659 84.6604 37.0723 83.0669 37.0723C81.4729 37.0723 80.1178 36.8659 79.0017 36.4536C77.8851 36.0413 77.0371 35.4356 76.4577 34.6362C75.8778 33.8372 75.5883 32.8726 75.5883 31.7417C75.5883 30.6109 75.8778 29.6457 76.4577 28.8468C77.0371 28.0478 77.8851 27.4417 79.0017 27.0293C80.1178 26.617 81.4729 26.4106 83.0669 26.4106C84.6604 26.4106 86.0155 26.617 87.1321 27.0293C88.2482 27.4417 89.0962 28.0478 89.6761 28.8468ZM87.4769 31.7417C87.4769 30.8066 87.0956 30.0881 86.3331 29.5861C85.5701 29.0846 84.4812 28.8337 83.0669 28.8337C81.6521 28.8337 80.5632 29.0846 79.8007 29.5861C79.0376 30.0881 78.6564 30.8066 78.6564 31.7417C78.6564 32.6768 79.0376 33.3954 79.8007 33.8968C80.5632 34.3983 81.6521 34.6493 83.0669 34.6493C84.4812 34.6493 85.5701 34.3983 86.3331 33.8968C87.0956 33.3954 87.4769 32.6768 87.4769 31.7417ZM103.585 32.4685C102.749 32.9956 101.424 33.3314 99.6088 33.4758C100.069 33.8925 100.761 34.1861 101.686 34.3556C102.611 34.5262 103.623 34.611 104.722 34.611V36.881C103.419 36.881 102.199 36.7448 101.066 36.473C99.9328 36.2007 98.9546 35.814 98.1323 35.3121C97.3096 34.8106 96.6981 34.2282 96.2979 33.5649H94.8278V36.8427H91.7597V26.6403H97.4869C99.2251 26.6403 100.634 26.7639 101.712 27.0099C102.79 27.2571 103.58 27.6374 104.083 28.1515C104.586 28.666 104.837 29.3269 104.837 30.1346C104.837 31.1637 104.42 31.9414 103.585 32.4685ZM101.769 30.3643C101.769 29.8541 101.388 29.5096 100.625 29.3313C99.8624 29.1525 98.8162 29.0633 97.4869 29.0633H94.8278V31.6269H97.4869C98.8332 31.6269 99.8837 31.5421 100.638 31.3716C101.392 31.2015 101.769 30.8657 101.769 30.3643ZM109.35 26.6403H106.282V36.8427H116.828V34.4196H109.35V26.6403ZM130.675 29.0187C131.319 29.7882 131.64 30.6956 131.64 31.7417C131.64 32.7873 131.319 33.6928 130.675 34.4579C130.032 35.2229 129.113 35.8121 127.92 36.2239C126.727 36.6367 125.325 36.8427 123.714 36.8427H118.013V26.6403L123.714 26.6277C125.325 26.6277 126.727 26.8341 127.92 27.2459C129.113 27.6587 130.032 28.2493 130.675 29.0187ZM128.572 31.7417C128.572 31.2146 128.374 30.749 127.978 30.3449C127.581 29.9413 127.017 29.6268 126.284 29.4015C125.551 29.1762 124.694 29.0633 123.714 29.0633H121.081V34.4196H123.714C124.694 34.4196 125.551 34.3072 126.284 34.0819C127.017 33.8566 127.581 33.5417 127.978 33.1381C128.374 32.7345 128.572 32.2689 128.572 31.7417ZM145.805 34.6493C144.296 34.6493 143.135 34.4089 142.321 33.9288C141.507 33.4482 141.1 32.7364 141.1 31.7926C141.1 30.8149 141.516 30.0774 142.347 29.5798C143.178 29.0827 144.39 28.8337 145.984 28.8337C147.484 28.8337 149.043 29.0381 150.663 29.4461L151.212 27.1761C150.36 26.9465 149.442 26.7614 148.458 26.6214C147.473 26.4809 146.491 26.4106 145.511 26.4106C143.994 26.4106 142.673 26.6296 141.548 27.0676C140.423 27.5056 139.555 28.1306 138.946 28.9422C138.337 29.7543 138.032 30.7044 138.032 31.7926C138.032 32.8638 138.337 33.797 138.946 34.5916C139.555 35.3867 140.423 35.9992 141.548 36.4284C142.673 36.8572 143.994 37.0723 145.511 37.0723C147.573 37.0723 149.525 36.7235 151.366 36.0263L150.816 33.7563C149.205 34.3518 147.535 34.6493 145.805 34.6493ZM162.756 31.1802C162.756 33.4932 161.584 34.6493 159.24 34.6493C156.905 34.6493 155.738 33.4932 155.738 31.1802V26.6403H152.669V31.1802C152.669 33.1531 153.214 34.628 154.306 35.6057C155.396 36.5834 157.041 37.0723 159.24 37.0723C161.439 37.0723 163.086 36.5834 164.181 35.6057C165.276 34.628 165.824 33.1531 165.824 31.1802V26.6403H162.756V31.1802ZM179.304 28.1646C179.794 28.6956 180.039 29.3783 180.039 30.2111C180.039 31.5886 179.459 32.6153 178.301 33.2912C177.141 33.9671 175.624 34.3048 173.749 34.3048C173.272 34.3048 172.716 34.284 172.081 34.2414C171.446 34.1987 170.894 34.1435 170.426 34.0751V36.8427H167.358V26.6403L173.085 26.6277H173.238C174.789 26.6277 176.065 26.7507 177.067 26.9974C178.068 27.244 178.814 27.6331 179.304 28.1646ZM176.971 30.5174C176.971 30.0159 176.66 29.6481 176.038 29.4141C175.416 29.1806 174.431 29.0633 173.085 29.0633H170.426V31.984C170.801 32.0179 171.26 32.0475 171.806 32.0731C172.351 32.0988 172.824 32.1114 173.225 32.1114C174.367 32.1114 175.277 31.984 175.955 31.7287C176.632 31.4738 176.971 31.0702 176.971 30.5174ZM189.997 32.9273H196.657V30.6957H189.997V29.0633H198.473V26.6403H187.006V36.8427H198.537V34.4196H189.997V32.9273ZM210.281 26.6403L207.418 30.5174H205.961L203.097 26.6403H199.518L203.391 31.7417L199.518 36.8427H203.097L205.986 32.9404H207.393L210.281 36.8427H213.861L209.988 31.7417L213.861 26.6403H210.281ZM227 28.1646C227.49 28.6956 227.735 29.3783 227.735 30.2111C227.735 31.5886 227.155 32.6153 225.996 33.2912C224.837 33.9671 223.32 34.3048 221.445 34.3048C220.967 34.3048 220.412 34.284 219.777 34.2414C219.142 34.1987 218.59 34.1435 218.121 34.0751V36.8427H215.053V26.6403L220.78 26.6277H220.934C222.485 26.6277 223.761 26.7507 224.763 26.9974C225.764 27.244 226.51 27.6331 227 28.1646ZM224.666 30.5174C224.666 30.0159 224.356 29.6481 223.733 29.4141C223.111 29.1806 222.127 29.0633 220.78 29.0633H218.121V31.984C218.496 32.0179 218.956 32.0475 219.502 32.0731C220.047 32.0988 220.52 32.1114 220.921 32.1114C222.063 32.1114 222.973 31.984 223.65 31.7287C224.328 31.4738 224.666 31.0702 224.666 30.5174ZM232.01 32.9273H238.67V30.6957H232.01V29.0633H240.485V26.6403H229.018V36.8427H240.549V34.4196H232.01V32.9273ZM254.004 32.4685C253.168 32.9956 251.843 33.3314 250.028 33.4758C250.488 33.8925 251.18 34.1861 252.105 34.3556C253.03 34.5262 254.042 34.611 255.141 34.611V36.881C253.838 36.881 252.619 36.7448 251.485 36.473C250.352 36.2007 249.374 35.814 248.551 35.3121C247.729 34.8106 247.117 34.2282 246.717 33.5649H245.247V36.8427H242.179V26.6403H247.906C249.644 26.6403 251.053 26.7639 252.131 27.0099C253.209 27.2571 253.999 27.6374 254.502 28.1515C255.005 28.666 255.256 29.3269 255.256 30.1346C255.256 31.1637 254.839 31.9414 254.004 32.4685ZM252.188 30.3643C252.188 29.8541 251.807 29.5096 251.044 29.3313C250.281 29.1525 249.235 29.0633 247.906 29.0633H245.247V31.6269H247.906C249.252 31.6269 250.303 31.5421 251.057 31.3716C251.811 31.2015 252.188 30.8657 252.188 30.3643ZM257.076 36.8427H260.144V26.6403H257.076V36.8427ZM265.255 32.9273H271.915V30.6957H265.255V29.0633H273.73V26.6403H262.263V36.8427H273.794V34.4196H265.255V32.9273ZM286.201 34.4196H285.382L281.1 26.6403H275.424V36.8427H278.492V29.0633H279.31L283.593 36.8427H289.269V26.6403H286.201V34.4196ZM298.577 34.6493C297.069 34.6493 295.908 34.4089 295.094 33.9288C294.28 33.4482 293.873 32.7364 293.873 31.7926C293.873 30.8149 294.288 30.0774 295.119 29.5798C295.95 29.0827 297.163 28.8337 298.757 28.8337C300.257 28.8337 301.816 29.0381 303.435 29.4461L303.985 27.1761C303.133 26.9465 302.214 26.7614 301.23 26.6214C300.246 26.4809 299.263 26.4106 298.284 26.4106C296.766 26.4106 295.445 26.6296 294.32 27.0676C293.196 27.5056 292.328 28.1306 291.719 28.9422C291.11 29.7543 290.805 30.7044 290.805 31.7926C290.805 32.8638 291.11 33.797 291.719 34.5916C292.328 35.3867 293.196 35.9992 294.32 36.4284C295.445 36.8572 296.766 37.0723 298.284 37.0723C300.346 37.0723 302.297 36.7235 304.139 36.0263L303.589 33.7563C301.978 34.3518 300.308 34.6493 298.577 34.6493ZM308.451 32.9273H315.112V30.6957H308.451V29.0633H316.927V26.6403H305.46V36.8427H316.991V34.4196H308.451V32.9273ZM326.277 30.8231C325.638 30.7301 324.798 30.6365 323.759 30.5426C323.06 30.4747 322.535 30.4151 322.186 30.3643C321.836 30.3134 321.558 30.2368 321.349 30.1346C321.14 30.0329 321.036 29.8923 321.036 29.714C321.036 29.4248 321.304 29.2019 321.841 29.0444C322.378 28.887 323.137 28.8085 324.117 28.8085C325.514 28.8085 327.014 29.0042 328.617 29.3952L329.166 27.1248C328.365 26.8869 327.54 26.7086 326.692 26.5894C325.844 26.4702 325.024 26.4106 324.231 26.4106C322.979 26.4106 321.884 26.5492 320.946 26.8254C320.009 27.1015 319.286 27.4969 318.78 28.0114C318.272 28.526 318.019 29.123 318.019 29.8032C318.019 30.5004 318.308 31.0828 318.888 31.5503C319.467 32.0179 320.358 32.3367 321.56 32.5068C322.131 32.5915 322.821 32.6642 323.631 32.7234C324.389 32.7917 324.973 32.8556 325.382 32.9147C325.791 32.9743 326.124 33.0659 326.379 33.1889C326.635 33.3125 326.763 33.4802 326.763 33.6929C326.763 33.9816 326.501 34.2156 325.976 34.394C325.452 34.5727 324.615 34.6619 323.465 34.6619C321.751 34.6619 320.166 34.4322 318.709 33.9734L318.159 36.2559C318.841 36.4856 319.679 36.6789 320.671 36.8364C321.664 36.9933 322.655 37.0723 323.644 37.0723C324.905 37.0723 326 36.9318 326.929 36.6513C327.858 36.3707 328.574 35.9715 329.077 35.4526C329.579 34.9342 329.831 34.3217 329.831 33.6163C329.831 32.0944 328.646 31.1637 326.277 30.8231Z" fill="white"></path></g><defs><clipPath id="clip0_44_863"><rect width="330" height="48" fill="white"></rect></clipPath></defs></svg> 